
<svg width="36" height="36" viewBox="0 0 36 36" fill="none" xmlns="http://www.w3.org/2000/svg">
    <path d="M31.8312 11.1049L22.4276 10.2328L18.6921 1.55879C18.4306 0.951432 17.5695 0.951432 17.308 1.55879L13.5726 10.2327L4.16889 11.1049C3.51041 11.1659 3.24435 11.9849 3.74111 12.4214L10.8362 18.6543L8.7598 27.8673C8.6144 28.5124 9.31112 29.0185 9.87967 28.6809L18.0001 23.8592L26.1204 28.6809C26.6891 29.0186 27.3857 28.5124 27.2403 27.8673L25.1638 18.6543L32.259 12.4214C32.7558 11.9849 32.4896 11.1659 31.8312 11.1049Z" fill="#FFDC64"/>
    <path d="M8.3867 1.26027C8.86609 1.92613 10.2192 4.78574 10.9928 6.45229C11.1144 6.71427 10.7857 6.95094 10.5758 6.75245C9.24079 5.4902 6.95809 3.29983 6.4787 2.6339C6.09937 2.10705 6.21897 1.37242 6.74589 0.993084C7.27274 0.613748 8.00737 0.73342 8.3867 1.26027ZM27.6132 1.26027C27.1338 1.92613 25.7807 4.78574 25.0072 6.45229C24.8855 6.71427 25.2142 6.95094 25.4241 6.75245C26.7591 5.4902 29.0418 3.29976 29.5212 2.6339C29.9006 2.10705 29.781 1.37242 29.254 0.993084C28.7272 0.613748 27.9926 0.73342 27.6132 1.26027ZM35.1886 20.7865C34.4086 20.5321 31.273 20.1118 29.4503 19.8812C29.1638 19.8449 29.0382 20.23 29.291 20.3697C30.8992 21.2581 33.6796 22.7673 34.4596 23.0216C35.0768 23.2229 35.7404 22.8858 35.9417 22.2685C36.143 21.6512 35.8058 20.9878 35.1886 20.7865ZM0.811304 20.7865C1.59135 20.5321 4.72694 20.1118 6.54965 19.8812C6.83617 19.8449 6.96175 20.23 6.70898 20.3697C5.10072 21.2581 2.32035 22.7673 1.5403 23.0216C0.923101 23.2229 0.259562 22.8858 0.0582572 22.2685C-0.143048 21.6512 0.194101 20.9878 0.811304 20.7865ZM16.8605 34.0531C16.8605 33.2326 17.4332 30.1213 17.7791 28.3169C17.8335 28.0332 18.2385 28.0332 18.2929 28.3169C18.6388 30.1213 19.2115 33.2326 19.2115 34.0531C19.2115 34.7023 18.6852 35.2286 18.036 35.2286C17.3868 35.2287 16.8605 34.7023 16.8605 34.0531Z" fill="#FFF082"/>
    <path d="M20.0504 4.71301L18.6921 1.55879C18.4305 0.951432 17.5694 0.951432 17.3079 1.55879L13.5725 10.2327L4.16889 11.1049C3.51041 11.1659 3.24435 11.9849 3.74111 12.4214L10.8362 18.6543L8.7598 27.8673C8.6144 28.5124 9.31112 29.0185 9.87967 28.6809L10.9604 28.0392C12.7322 16.5698 17.7133 8.15045 20.0504 4.71301Z" fill="#FFC850"/>
</svg>
