<svg width="36" height="36" viewBox="0 0 36 36" fill="none" xmlns="http://www.w3.org/2000/svg">
    <path d="M18 36C27.9411 36 36 27.9411 36 18C36 8.05887 27.9411 0 18 0C8.05887 0 0 8.05887 0 18C0 27.9411 8.05887 36 18 36Z" fill="#00BA00"/>
    <path fill-rule="evenodd" clip-rule="evenodd" d="M12.3733 26.7874L5.81105 19.7149C5.37571 19.2485 5.14317 18.6284 5.16442 17.9907C5.18568 17.353 5.459 16.7498 5.92444 16.3133C6.39273 15.8798 7.01388 15.6497 7.6516 15.6737C8.28932 15.6976 8.8915 15.9735 9.32601 16.4409L14.4 21.8693L22.4362 14.3574C22.508 14.2915 22.5838 14.23 22.663 14.1732L26.4331 10.6441C26.8996 10.2087 27.5196 9.97618 28.1573 9.99743C28.795 10.0187 29.3982 10.292 29.8347 10.7574C30.27 11.2239 30.5026 11.844 30.4813 12.4817C30.46 13.1194 30.1867 13.7226 29.7213 14.159L18.1701 24.9307L14.1591 28.6582L12.3874 26.759L12.3733 26.7874Z" fill="white"/>
</svg>
