<svg width="44" height="44" viewBox="0 0 44 44" fill="none" xmlns="http://www.w3.org/2000/svg">
    <path fill-rule="evenodd" clip-rule="evenodd" d="M31.3268 15.1974C31.3268 15.1436 31.3054 15.092 31.2673 15.0539C31.2293 15.0159 31.1777 14.9945 31.1239 14.9945H29.11C29.0717 14.9945 29.0343 14.9837 29.002 14.9633C28.9696 14.943 28.9437 14.9139 28.9271 14.8794C28.9106 14.845 28.9041 14.8066 28.9084 14.7686C28.9127 14.7306 28.9277 14.6947 28.9516 14.6648L33.7318 8.69108C33.7509 8.66734 33.775 8.64817 33.8024 8.635C33.8298 8.62183 33.8599 8.61499 33.8903 8.61499C33.9207 8.61499 33.9508 8.62183 33.9782 8.635C34.0056 8.64817 34.0297 8.66734 34.0487 8.69108L38.829 14.6648C38.853 14.6946 38.868 14.7306 38.8723 14.7686C38.8767 14.8066 38.8702 14.8451 38.8537 14.8795C38.8371 14.914 38.8111 14.9431 38.7787 14.9634C38.7464 14.9838 38.7089 14.9945 38.6706 14.9945H36.5934C36.5396 14.9945 36.488 15.0159 36.4499 15.0539C36.4119 15.092 36.3905 15.1436 36.3905 15.1974V37.133C36.3905 37.1868 36.3691 37.2385 36.3311 37.2765C36.293 37.3146 36.2414 37.3359 36.1876 37.3359H31.5297C31.4759 37.3359 31.4243 37.3146 31.3862 37.2765C31.3482 37.2385 31.3268 37.1868 31.3268 37.133V15.1974Z" fill="#8AC9FE"/>
    <path fill-rule="evenodd" clip-rule="evenodd" d="M33.4589 9.03221L33.7318 8.69108C33.7509 8.66734 33.775 8.64817 33.8024 8.635C33.8298 8.62183 33.8599 8.61499 33.8903 8.61499C33.9207 8.61499 33.9507 8.62183 33.9782 8.635C34.0056 8.64817 34.0297 8.66734 34.0487 8.69108L38.829 14.6648C38.853 14.6946 38.868 14.7306 38.8723 14.7686C38.8767 14.8066 38.8702 14.8451 38.8537 14.8795C38.8371 14.914 38.8111 14.9431 38.7787 14.9634C38.7463 14.9838 38.7089 14.9945 38.6706 14.9945H37.8079C37.8461 14.9945 37.8836 14.9838 37.916 14.9634C37.9484 14.9431 37.9743 14.914 37.9909 14.8795C38.0075 14.8451 38.0139 14.8066 38.0096 14.7686C38.0052 14.7306 37.9902 14.6946 37.9663 14.6648L33.4589 9.03221ZM36.5934 14.9945C36.5396 14.9945 36.488 15.0159 36.4499 15.0539C36.4118 15.092 36.3905 15.1436 36.3905 15.1974V37.133C36.3905 37.1868 36.3691 37.2385 36.331 37.2765C36.293 37.3146 36.2414 37.3359 36.1876 37.3359H35.3248C35.3786 37.3359 35.4302 37.3146 35.4683 37.2765C35.5063 37.2385 35.5277 37.1868 35.5277 37.133V15.1974C35.5277 15.1436 35.5491 15.092 35.5872 15.0539C35.6252 15.0159 35.6768 14.9945 35.7306 14.9945H36.5934Z" fill="#60B7FF"/>
    <path fill-rule="evenodd" clip-rule="evenodd" d="M12.5183 19.2773C12.5183 19.2235 12.5397 19.1719 12.5778 19.1339C12.6158 19.0958 12.6674 19.0745 12.7212 19.0745H17.3791C17.4329 19.0745 17.4845 19.0958 17.5226 19.1339C17.5606 19.1719 17.582 19.2235 17.582 19.2773V37.1331C17.582 37.1869 17.5606 37.2385 17.5226 37.2766C17.4845 37.3146 17.4329 37.336 17.3791 37.336H12.7212C12.6674 37.336 12.6158 37.3146 12.5777 37.2766C12.5397 37.2385 12.5183 37.1869 12.5183 37.1331V19.2773Z" fill="#6CF5C2"/>
    <path fill-rule="evenodd" clip-rule="evenodd" d="M16.5164 19.0745H17.3791C17.4329 19.0745 17.4845 19.0958 17.5226 19.1339C17.5606 19.1719 17.582 19.2235 17.582 19.2773V37.1331C17.582 37.1869 17.5606 37.2385 17.5226 37.2766C17.4845 37.3146 17.4329 37.336 17.3791 37.336H16.5164C16.543 37.336 16.5694 37.3308 16.594 37.3206C16.6186 37.3104 16.641 37.2954 16.6598 37.2766C16.6787 37.2577 16.6936 37.2354 16.7038 37.2108C16.714 37.1861 16.7193 37.1597 16.7193 37.1331V19.2773C16.7193 19.2235 16.6979 19.1719 16.6598 19.1339C16.6218 19.0958 16.5702 19.0745 16.5164 19.0745Z" fill="#00E499"/>
    <path fill-rule="evenodd" clip-rule="evenodd" d="M21.9209 22.73C21.9209 22.7034 21.9261 22.677 21.9363 22.6524C21.9465 22.6277 21.9614 22.6054 21.9803 22.5865C21.9991 22.5677 22.0215 22.5527 22.0461 22.5425C22.0707 22.5323 22.0971 22.5271 22.1237 22.5271H26.7817C26.8083 22.5271 26.8347 22.5323 26.8593 22.5425C26.8839 22.5527 26.9063 22.5677 26.9251 22.5865C26.944 22.6054 26.9589 22.6278 26.9691 22.6524C26.9793 22.677 26.9845 22.7034 26.9845 22.73V37.1331C26.9845 37.1869 26.9632 37.2385 26.9251 37.2766C26.8871 37.3146 26.8355 37.336 26.7817 37.336H22.1237C22.0699 37.336 22.0184 37.3146 21.9803 37.2765C21.9423 37.2385 21.9209 37.1869 21.9209 37.1331V22.73Z" fill="#FFE177"/>
    <path fill-rule="evenodd" clip-rule="evenodd" d="M25.9189 22.5271H26.7817C26.8083 22.5271 26.8347 22.5323 26.8593 22.5425C26.8839 22.5527 26.9063 22.5677 26.9251 22.5865C26.944 22.6054 26.9589 22.6278 26.9691 22.6524C26.9793 22.677 26.9845 22.7034 26.9845 22.73V37.1331C26.9845 37.1869 26.9632 37.2385 26.9251 37.2766C26.8871 37.3146 26.8355 37.336 26.7817 37.336H25.9189C25.9456 37.336 25.972 37.3308 25.9966 37.3206C26.0212 37.3104 26.0436 37.2954 26.0624 37.2766C26.0812 37.2578 26.0962 37.2354 26.1064 37.2108C26.1165 37.1861 26.1218 37.1598 26.1218 37.1331V22.73C26.1218 22.6762 26.1004 22.6246 26.0624 22.5866C26.0243 22.5485 25.9727 22.5271 25.9189 22.5271Z" fill="#FFD064"/>
    <path fill-rule="evenodd" clip-rule="evenodd" d="M3.11243 27.8234C3.11243 27.7968 3.11768 27.7704 3.12787 27.7458C3.13807 27.7212 3.15302 27.6988 3.17187 27.68C3.19071 27.6611 3.21308 27.6462 3.2377 27.636C3.26232 27.6258 3.2887 27.6206 3.31534 27.6206H7.97658C8.00322 27.6206 8.0296 27.6258 8.05422 27.636C8.07883 27.6462 8.1012 27.6612 8.12003 27.68C8.13887 27.6988 8.15381 27.7212 8.164 27.7458C8.17419 27.7704 8.17943 27.7968 8.17942 27.8234V37.1332C8.17942 37.187 8.15805 37.2386 8.12001 37.2767C8.08198 37.3147 8.03039 37.3361 7.97658 37.3362H3.31534C3.26153 37.3362 3.20991 37.3148 3.17186 37.2767C3.13381 37.2387 3.11243 37.1871 3.11243 37.1332V27.8234Z" fill="#FE646F"/>
    <path fill-rule="evenodd" clip-rule="evenodd" d="M7.11377 27.6206H7.97651C8.00315 27.6206 8.02953 27.6258 8.05415 27.636C8.07876 27.6462 8.10113 27.6612 8.11996 27.68C8.1388 27.6988 8.15374 27.7212 8.16393 27.7458C8.17412 27.7704 8.17936 27.7968 8.17935 27.8234V37.1332C8.17935 37.187 8.15798 37.2386 8.11994 37.2767C8.08191 37.3147 8.03032 37.3361 7.97651 37.3362H7.11377C7.16757 37.3361 7.21916 37.3147 7.2572 37.2767C7.29523 37.2386 7.3166 37.187 7.3166 37.1332V27.8234C7.31661 27.7968 7.31137 27.7704 7.30118 27.7458C7.291 27.7212 7.27605 27.6988 7.25722 27.68C7.23838 27.6612 7.21602 27.6462 7.1914 27.636C7.16679 27.6258 7.14041 27.6206 7.11377 27.6206Z" fill="#FD4755"/>
    <path fill-rule="evenodd" clip-rule="evenodd" d="M33.1489 2.41833L32.8725 2.43334C32.4921 2.45387 32.1666 2.16175 32.146 1.78136C32.1255 1.40098 32.4176 1.07547 32.7979 1.05493L34.7299 0.950454C34.8209 0.945576 34.9119 0.958737 34.9977 0.98918C35.0836 1.01962 35.1625 1.06675 35.2301 1.12784C35.2976 1.18893 35.3524 1.26277 35.3913 1.34513C35.4302 1.42749 35.4524 1.51672 35.4566 1.60769L35.5464 3.54042C35.564 3.92089 35.2694 4.24416 34.8889 4.26184C34.706 4.27023 34.5274 4.2057 34.3921 4.08243C34.2568 3.95917 34.176 3.78724 34.1674 3.60443L34.1562 3.36278L23.2442 15.609C23.1438 15.7218 23.0091 15.7984 22.8609 15.8273C22.7127 15.8562 22.5591 15.8357 22.4237 15.7689L13.4299 11.3334L4.37374 19.2218C4.23568 19.3419 4.05555 19.4024 3.87295 19.3898C3.69035 19.3772 3.52023 19.2926 3.39996 19.1546C3.27981 19.0166 3.2194 18.8364 3.23198 18.6539C3.24457 18.4713 3.32913 18.3011 3.46708 18.1809L12.8697 9.99073C12.9723 9.90132 13.0991 9.84425 13.2341 9.82671C13.3691 9.80916 13.5062 9.83192 13.6283 9.89212L22.5631 14.2985L33.1489 2.41833Z" fill="#A79BA7"/>
    <path fill-rule="evenodd" clip-rule="evenodd" d="M3.92044 21.3238C5.36675 21.3238 6.54621 20.1478 6.54621 18.7014C6.54621 17.2551 5.36675 16.0757 3.92044 16.0757C2.47414 16.0757 1.29468 17.2551 1.29468 18.7014C1.29468 20.1478 2.47414 21.3238 3.92044 21.3238Z" fill="#FE646F"/>
    <path fill-rule="evenodd" clip-rule="evenodd" d="M3.48901 21.2885C4.73128 21.0822 5.68341 20.0008 5.68341 18.7014C5.68341 17.402 4.73128 16.3179 3.48901 16.1112C3.63158 16.0875 3.77586 16.0756 3.92039 16.0757C5.36669 16.0757 6.54615 17.2551 6.54615 18.7014C6.54615 20.1478 5.36669 21.3238 3.92039 21.3238C3.77355 21.3238 3.62938 21.3118 3.48901 21.2885Z" fill="#FD4755"/>
    <path fill-rule="evenodd" clip-rule="evenodd" d="M13.323 13.1334C14.7693 13.1334 15.9487 11.954 15.9487 10.511C15.9487 9.06471 14.7693 7.88525 13.323 7.88525C11.88 7.88525 10.7006 9.06471 10.7006 10.511C10.7006 11.954 11.88 13.1334 13.323 13.1334Z" fill="#6CF5C2"/>
    <path fill-rule="evenodd" clip-rule="evenodd" d="M12.8921 13.0979C14.1341 12.891 15.086 11.8073 15.086 10.511C15.086 9.21172 14.1341 8.12786 12.8921 7.92088C13.0345 7.89715 13.1786 7.88523 13.3229 7.88525C14.7693 7.88525 15.9487 9.06471 15.9487 10.511C15.9487 11.954 14.7693 13.1334 13.3229 13.1334C13.1763 13.1334 13.0323 13.1213 12.8921 13.0979Z" fill="#00E499"/>
    <path fill-rule="evenodd" clip-rule="evenodd" d="M22.7289 17.7723C24.1752 17.7723 25.3513 16.5929 25.3513 15.1499C25.3513 13.7036 24.1752 12.5242 22.7289 12.5242C21.2826 12.5242 20.1031 13.7036 20.1031 15.1499C20.1031 16.5929 21.2826 17.7723 22.7289 17.7723Z" fill="#FFE177"/>
    <path fill-rule="evenodd" clip-rule="evenodd" d="M22.2975 17.7368C23.5392 17.5301 24.4886 16.4464 24.4886 15.1499C24.4886 13.8505 23.5392 12.7664 22.2975 12.5597C22.4401 12.536 22.5844 12.5241 22.7289 12.5242C24.1753 12.5242 25.3513 13.7036 25.3513 15.1499C25.3513 16.5929 24.1753 17.7723 22.7289 17.7723C22.5821 17.7723 22.4379 17.7602 22.2975 17.7368Z" fill="#FFD064"/>
    <path fill-rule="evenodd" clip-rule="evenodd" d="M37.7804 36.2442C37.7804 36.1904 37.759 36.1387 37.721 36.1007C37.6829 36.0626 37.6313 36.0413 37.5775 36.0413H2.01359C1.95977 36.0413 1.90816 36.0626 1.8701 36.1007C1.83205 36.1387 1.81067 36.1904 1.81067 36.2442V38.1861C1.81067 38.2399 1.83205 38.2916 1.8701 38.3296C1.90816 38.3677 1.95977 38.389 2.01359 38.389H37.5775C37.6313 38.389 37.6829 38.3677 37.721 38.3296C37.759 38.2916 37.7804 38.2399 37.7804 38.1861V36.2442Z" fill="#A79BA7"/>
    <path fill-rule="evenodd" clip-rule="evenodd" d="M1.81067 37.5263H36.7147C36.7686 37.5263 36.8202 37.5049 36.8582 37.4669C36.8963 37.4288 36.9177 37.3772 36.9177 37.3234V36.0413H37.5775C37.6313 36.0413 37.6829 36.0626 37.721 36.1007C37.759 36.1387 37.7804 36.1904 37.7804 36.2442V38.1861C37.7804 38.2399 37.759 38.2916 37.721 38.3296C37.6829 38.3677 37.6313 38.389 37.5775 38.389H2.01359C1.95977 38.389 1.90816 38.3677 1.8701 38.3296C1.83205 38.2916 1.81067 38.2399 1.81067 38.1861V37.5263Z" fill="#837683"/>
    <path fill-rule="evenodd" clip-rule="evenodd" d="M35.268 34.5723C34.9406 35.0403 34.5553 35.4651 34.1212 35.8363L37.2408 38.8945L38.4286 37.6703L35.268 34.5723Z" fill="#837683"/>
    <path fill-rule="evenodd" clip-rule="evenodd" d="M35.2896 34.5518C35.2282 34.7531 35.1133 34.9056 34.9495 35.0069L38.0486 38.0867L38.4286 37.6702L35.2896 34.5518Z" fill="#685E68"/>
    <path fill-rule="evenodd" clip-rule="evenodd" d="M41.1922 42.865L42.5325 41.4827C42.7679 41.2404 42.7622 40.849 42.52 40.6135L38.8064 37.0104C38.5641 36.7748 38.1727 36.7816 37.9372 37.024L36.597 38.4052C36.3614 38.6475 36.3671 39.0388 36.6095 39.2744L40.323 42.8775C40.5653 43.1131 40.9567 43.1074 41.1922 42.865Z" fill="#F1BA84"/>
    <path fill-rule="evenodd" clip-rule="evenodd" d="M38.2568 37.0105L41.9704 40.6136C42.2127 40.8491 42.2184 41.2405 41.9829 41.4829L40.6427 42.8651C40.5943 42.9142 40.5381 42.9549 40.4765 42.9858C40.7098 43.1018 41.0011 43.0608 41.1922 42.8651L42.5324 41.4829C42.7679 41.2405 42.7622 40.8491 42.5199 40.6136L38.8063 37.0105C38.6152 36.825 38.3308 36.7897 38.1033 36.9024C38.1597 36.9303 38.2115 36.9668 38.2568 37.0105Z" fill="#E3A76F"/>
    <path fill-rule="evenodd" clip-rule="evenodd" d="M30.2018 24.408C33.9358 24.408 36.9632 27.4343 36.9632 31.1694C36.9632 34.9034 33.9358 37.9309 30.2018 37.9309C26.4666 37.9309 23.4403 34.9034 23.4403 31.1694C23.4403 27.4343 26.4666 24.408 30.2018 24.408Z" fill="#837683"/>
    <path fill-rule="evenodd" clip-rule="evenodd" d="M30.2018 24.408C33.9358 24.408 36.9632 27.4343 36.9632 31.1694C36.9632 34.9034 33.9358 37.9309 30.2018 37.9309C30.0914 37.9309 29.9821 37.9275 29.8729 37.923C33.4545 37.7512 36.3068 34.7931 36.3068 31.1694C36.3068 27.5447 33.4545 24.5866 29.8729 24.4159C29.9825 24.4104 30.0921 24.4078 30.2018 24.408Z" fill="#685E68"/>
    <path fill-rule="evenodd" clip-rule="evenodd" d="M30.2018 26.7261C32.6548 26.7261 34.6449 28.7151 34.6449 31.1692C34.6449 33.6223 32.6548 35.6123 30.2018 35.6123C27.7476 35.6123 25.7587 33.6223 25.7587 31.1692C25.7587 28.7151 27.7476 26.7261 30.2018 26.7261Z" fill="#ECEFF1"/>
    <path fill-rule="evenodd" clip-rule="evenodd" d="M30.2018 26.7261C30.3025 26.7261 30.4023 26.729 30.5021 26.7358C28.1876 26.8909 26.3593 28.8159 26.3593 31.1692C26.3593 33.5216 28.1876 35.4477 30.5021 35.6017C30.4022 35.6087 30.302 35.6122 30.2018 35.6123C27.7476 35.6123 25.7587 33.6234 25.7587 31.1692C25.7587 28.7151 27.7476 26.7261 30.2018 26.7261Z" fill="#D1D1D6"/>
    <path fill-rule="evenodd" clip-rule="evenodd" d="M27.6803 31.7791C27.4109 31.5098 27.4109 31.0724 27.6803 30.803C27.9496 30.5337 28.387 30.5337 28.6564 30.803L29.3781 31.5247L31.7731 29.352C32.0553 29.096 32.4922 29.1173 32.7481 29.3994C33.004 29.6815 32.9828 30.1184 32.7006 30.3743L29.8186 32.9888C29.6873 33.1079 29.5153 33.1719 29.3381 33.1676C29.1609 33.1633 28.9922 33.091 28.8668 32.9657L27.6803 31.7791Z" fill="#8AC9FE"/>
</svg>
