

<svg width="24" height="24" viewBox="0 0 24 24" fill="none" xmlns="http://www.w3.org/2000/svg">
    <path opacity="0.4" d="M20.04 6.81994L14.28 2.78994C12.71 1.68994 10.3 1.74994 8.78999 2.91994L3.77999 6.82994C2.77999 7.60994 1.98999 9.20994 1.98999 10.4699V17.3699C1.98999 19.9199 4.05999 21.9999 6.60999 21.9999H17.39C19.94 21.9999 22.01 19.9299 22.01 17.3799V10.5999C22.01 9.24994 21.14 7.58994 20.04 6.81994Z" fill="#305CDE"/>
    <path d="M12 18.75C11.59 18.75 11.25 18.41 11.25 18V15C11.25 14.59 11.59 14.25 12 14.25C12.41 14.25 12.75 14.59 12.75 15V18C12.75 18.41 12.41 18.75 12 18.75Z" fill="#305CDE"/>
</svg>
