
<svg width="24" height="24" viewBox="0 0 24 24" fill="none" xmlns="http://www.w3.org/2000/svg">
    <path d="M18.5686 10.353H18.0545V6.65458C18.0545 3.31618 15.3384 0.600098 12 0.600098C8.66159 0.600098 5.94551 3.31618 5.94551 6.65458V10.353H5.43143C3.95063 10.353 2.75183 11.5544 2.75183 13.0326V20.7179C2.75183 22.1987 3.95087 23.4001 5.43143 23.4001H18.5688C20.0496 23.4001 21.2484 22.1987 21.2484 20.7179V13.0326C21.2484 11.5542 20.0494 10.353 18.5688 10.353H18.5686ZM13.2245 17.3312V19.5164C13.2245 19.8412 13.0955 20.1526 12.8658 20.3823C12.6362 20.6119 12.3247 20.7409 12 20.7409C11.6752 20.7409 11.3638 20.6119 11.1342 20.3823C10.9045 20.1526 10.7755 19.8412 10.7755 19.5164V17.3312C10.4356 17.1232 10.1549 16.8314 9.9602 16.4837C9.76549 16.136 9.66336 15.7442 9.66359 15.3457C9.66359 14.0571 10.7114 13.0119 12 13.0119C13.2886 13.0119 14.3364 14.0571 14.3364 15.3457C14.3366 15.7442 14.2345 16.136 14.0398 16.4837C13.8451 16.8314 13.5643 17.1232 13.2245 17.3312ZM15.3734 10.353H8.62655V6.65458C8.62655 4.79434 10.1398 3.28114 12 3.28114C13.8602 3.28114 15.3734 4.79434 15.3734 6.65458V10.353Z" fill="#305CDE"/>
</svg>
