<svg width="44" height="44" viewBox="0 0 44 44" fill="none" xmlns="http://www.w3.org/2000/svg">
    <g clip-path="url(#clip0_24978_1653)">
        <path d="M43.2822 17.7633V41.8535C43.2844 42.1506 43.2233 42.4447 43.103 42.7163C42.9828 42.988 42.8061 43.2309 42.5846 43.429L42.5214 43.4922C42.135 43.8216 41.6435 44.0017 41.1359 43.9998H2.86473C2.36065 43.9997 1.87316 43.8197 1.48997 43.4922C1.46384 43.4769 1.44207 43.4551 1.42669 43.429C1.20362 43.2316 1.02506 42.9891 0.902858 42.7175C0.780653 42.4458 0.717594 42.1514 0.717863 41.8535V17.7633C0.712847 17.2278 0.917813 16.7115 1.28884 16.3253C1.44013 16.1467 1.62177 15.9963 1.8254 15.881C2.14307 15.7071 2.49943 15.6162 2.86154 15.6165H41.1354C41.4328 15.6218 41.7262 15.6863 41.9985 15.806C42.2708 15.9258 42.5166 16.0984 42.7216 16.314C43.0815 16.711 43.2812 17.2275 43.2822 17.7633Z" fill="#F6B863"/>
        <path d="M42.7235 16.312C42.5728 16.4982 22.0112 32.8502 22.0112 32.8502L1.2876 16.3302L1.2967 16.3216V16.3125L20.8378 0.41601C21.1686 0.14691 21.5821 0 22.0086 0C22.4351 0 22.8486 0.14691 23.1795 0.41601L42.7235 16.312Z" fill="#EAA14E"/>
        <path d="M38.352 5.22754V19.8324L22.0091 32.8501L5.6571 19.8147V5.22754H38.352Z" fill="#EEEFEE"/>
        <path d="M42.5821 43.4279C42.5636 43.4509 42.5427 43.4717 42.5198 43.4902L24.1105 31.2098L25.7953 29.8528L42.5821 43.4279ZM19.8982 31.2007L1.48891 43.4885C1.46183 43.4753 1.43993 43.4534 1.42664 43.4263L18.2047 29.835L19.8982 31.2007Z" fill="#EAA14E"/>
        <path d="M9.27905 9.06104H34.7203V10.1648H9.27905V9.06104ZM9.27905 13.3184H34.7203V14.4221H9.27905V13.3184ZM9.27905 17.5762H34.7203V18.68H9.27905V17.5762ZM13.5519 21.8334H30.4481V22.9372H13.5519V21.8334Z" fill="#DBD8DD"/>
    </g>
    <defs>
        <clipPath id="clip0_24978_1653">
            <rect width="44" height="44" fill="white"/>
        </clipPath>
    </defs>
</svg>
