<svg width="44" height="44" viewBox="0 0 44 44" fill="none" xmlns="http://www.w3.org/2000/svg">
    <path d="M6.41663 2.29175C5.32261 2.29175 4.2734 2.72634 3.49981 3.49993C2.72622 4.27352 2.29163 5.32273 2.29163 6.41675V14.6667C2.29637 15.0299 2.44276 15.3769 2.6996 15.6338C2.95645 15.8906 3.30343 16.037 3.66663 16.0417H9.16663C9.52982 16.037 9.87681 15.8906 10.1336 15.6338C10.3905 15.3769 10.5369 15.0299 10.5416 14.6667V6.41675C10.5416 5.32273 10.107 4.27352 9.33344 3.49993C8.55985 2.72634 7.51064 2.29175 6.41663 2.29175Z" fill="#1565C0"/>
    <path d="M6.41663 2.29175H11V5.95841H6.41663V2.29175Z" fill="#1565C0"/>
    <path d="M36.2084 11V40.3334C36.2036 40.6966 36.0572 41.0435 35.8004 41.3004C35.5435 41.5572 35.1965 41.7036 34.8334 41.7084H15.5834C14.0046 41.7035 12.4919 41.0742 11.3755 39.9579C10.2592 38.8415 9.62985 37.3288 9.62502 35.75V5.2617C9.62669 4.54437 9.36708 3.85098 8.89471 3.31113C8.42235 2.77129 7.76955 2.42193 7.05835 2.32837H27.5C29.8033 2.32835 32.0127 3.2408 33.6448 4.866C35.2769 6.49121 36.1987 8.6968 36.2084 11Z" fill="#29B6F6"/>
    <path d="M28.4166 12.375H17.4166C17.052 12.375 16.7022 12.2301 16.4444 11.9723C16.1865 11.7144 16.0416 11.3647 16.0416 11C16.0416 10.6353 16.1865 10.2856 16.4444 10.0277C16.7022 9.76987 17.052 9.625 17.4166 9.625H28.4166C28.7813 9.625 29.131 9.76987 29.3889 10.0277C29.6468 10.2856 29.7916 10.6353 29.7916 11C29.7916 11.3647 29.6468 11.7144 29.3889 11.9723C29.131 12.2301 28.7813 12.375 28.4166 12.375ZM22.9166 25.2083H17.4166C17.052 25.2083 16.7022 25.0635 16.4444 24.8056C16.1865 24.5477 16.0416 24.198 16.0416 23.8333C16.0416 23.4687 16.1865 23.1189 16.4444 22.8611C16.7022 22.6032 17.052 22.4583 17.4166 22.4583H22.9166C23.2813 22.4583 23.631 22.6032 23.8889 22.8611C24.1468 23.1189 24.2916 23.4687 24.2916 23.8333C24.2916 24.198 24.1468 24.5477 23.8889 24.8056C23.631 25.0635 23.2813 25.2083 22.9166 25.2083ZM28.4166 18.7917H17.4166C17.052 18.7917 16.7022 18.6468 16.4444 18.3889C16.1865 18.1311 16.0416 17.7813 16.0416 17.4167C16.0416 17.052 16.1865 16.7023 16.4444 16.4444C16.7022 16.1865 17.052 16.0417 17.4166 16.0417H28.4166C28.7813 16.0417 29.131 16.1865 29.3889 16.4444C29.6468 16.7023 29.7916 17.052 29.7916 17.4167C29.7916 17.7813 29.6468 18.1311 29.3889 18.3889C29.131 18.6468 28.7813 18.7917 28.4166 18.7917Z" fill="white"/>
    <path d="M41.7083 32.0834V35.7501C41.7035 37.3288 41.0742 38.8416 39.9578 39.9579C38.8414 41.0743 37.3287 41.7036 35.75 41.7084H16.335C17.0405 41.5187 17.6638 41.1014 18.108 40.5213C18.5522 39.9412 18.7925 39.2307 18.7916 38.5001V32.0834C18.7916 31.4756 19.0331 30.8927 19.4628 30.463C19.8926 30.0332 20.4755 29.7917 21.0833 29.7917H39.4166C40.0244 29.7917 40.6073 30.0332 41.0371 30.463C41.4669 30.8927 41.7083 31.4756 41.7083 32.0834Z" fill="#1565C0"/>
</svg>
