
<svg width="24" height="24" viewBox="0 0 24 24" fill="none" xmlns="http://www.w3.org/2000/svg">
    <path d="M9.021 22.2501C8.68948 22.2514 8.37101 22.121 8.13565 21.8875C7.90029 21.654 7.76733 21.3366 7.766 21.0051C7.76467 20.6735 7.8951 20.3551 8.12858 20.1197C8.36206 19.8843 8.67948 19.7514 9.011 19.7501H9.021C9.35252 19.7501 9.67046 19.8818 9.90488 20.1162C10.1393 20.3506 10.271 20.6685 10.271 21.0001C10.271 21.3316 10.1393 21.6495 9.90488 21.8839C9.67046 22.1184 9.35252 22.2501 9.021 22.2501ZM18.271 21.0001C18.271 20.6685 18.1393 20.3506 17.9049 20.1162C17.6705 19.8818 17.3525 19.7501 17.021 19.7501H17.011C16.7642 19.752 16.5235 19.827 16.3193 19.9656C16.115 20.1041 15.9564 20.3 15.8633 20.5286C15.7702 20.7572 15.7469 21.0082 15.7963 21.25C15.8456 21.4918 15.9654 21.7136 16.1406 21.8874C16.3159 22.0612 16.5386 22.1793 16.7808 22.2267C17.023 22.2741 17.2738 22.2488 17.5016 22.1539C17.7295 22.059 17.9241 21.8988 18.061 21.6935C18.1979 21.4881 18.271 21.2469 18.271 21.0001ZM20.96 8.36006L19.95 14.5401C19.9371 14.9022 19.848 15.2577 19.6885 15.5831C19.529 15.9085 19.3027 16.1967 19.0243 16.4288C18.746 16.6609 18.4219 16.8318 18.0731 16.9302C17.7243 17.0286 17.3586 17.0524 17 17.0001H8.73C8.24778 17.0012 7.78146 16.8276 7.41742 16.5114C7.05337 16.1952 6.81626 15.7577 6.75 15.2801L5.249 4.83206C5.20977 4.53171 5.06223 4.25603 4.83408 4.05679C4.60593 3.85756 4.31289 3.74848 4.01 3.75006H3.75C3.55109 3.75006 3.36032 3.67104 3.21967 3.53039C3.07902 3.38973 3 3.19897 3 3.00006C3 2.80114 3.07902 2.61038 3.21967 2.46973C3.36032 2.32907 3.55109 2.25006 3.75 2.25006H4.01C4.67356 2.2458 5.31594 2.48346 5.81695 2.91857C6.31796 3.35369 6.64326 3.95644 6.732 4.61406L6.941 6.00006H19C19.2925 6.00113 19.5812 6.06635 19.8458 6.19113C20.1104 6.31591 20.3444 6.49721 20.5312 6.72224C20.7181 6.94727 20.8534 7.21056 20.9275 7.49354C21.0016 7.77653 21.0127 8.07232 20.96 8.36006ZM15.507 9.63606C15.4373 9.56636 15.3546 9.51107 15.2636 9.47335C15.1726 9.43563 15.075 9.41622 14.9765 9.41622C14.878 9.41622 14.7804 9.43563 14.6894 9.47335C14.5984 9.51107 14.5157 9.56636 14.446 9.63606L12.31 11.7721L11.51 10.9721C11.3686 10.8354 11.1792 10.7597 10.9825 10.7613C10.7859 10.7629 10.5978 10.8417 10.4586 10.9807C10.3195 11.1197 10.2405 11.3078 10.2387 11.5044C10.2369 11.7011 10.3124 11.8905 10.449 12.0321L11.782 13.3661C11.9229 13.5063 12.1137 13.5851 12.3125 13.5851C12.5113 13.5851 12.7021 13.5063 12.843 13.3661L15.507 10.7001C15.5771 10.6304 15.6328 10.5475 15.6708 10.4562C15.7088 10.3649 15.7283 10.2669 15.7283 10.1681C15.7283 10.0692 15.7088 9.97125 15.6708 9.87995C15.6328 9.78865 15.5771 9.70576 15.507 9.63606Z" fill="#305CDE"/>
</svg>
