
<svg width="20" height="20" viewBox="0 0 20 20" fill="none" xmlns="http://www.w3.org/2000/svg">
    <path fill-rule="evenodd" clip-rule="evenodd" d="M13.9999 17.9999C14.1325 17.9999 14.2597 17.9473 14.3535 17.8535C14.4473 17.7597 14.4999 17.6325 14.4999 17.4999C14.4999 17.3673 14.4473 17.2402 14.3535 17.1464C14.2597 17.0526 14.1325 16.9999 13.9999 16.9999C13.8673 16.9999 13.7402 17.0526 13.6464 17.1464C13.5526 17.2402 13.4999 17.3673 13.4999 17.4999C13.4999 17.6325 13.5526 17.7597 13.6464 17.8535C13.7402 17.9473 13.8673 17.9999 13.9999 17.9999ZM13.9999 19.4999C14.5304 19.4999 15.0391 19.2892 15.4142 18.9142C15.7892 18.5391 15.9999 18.0304 15.9999 17.4999C15.9999 16.9695 15.7892 16.4608 15.4142 16.0857C15.0391 15.7107 14.5304 15.4999 13.9999 15.4999C13.4695 15.4999 12.9608 15.7107 12.5857 16.0857C12.2107 16.4608 11.9999 16.9695 11.9999 17.4999C11.9999 18.0304 12.2107 18.5391 12.5857 18.9142C12.9608 19.2892 13.4695 19.4999 13.9999 19.4999ZM7.99994 17.9999C8.13255 17.9999 8.25973 17.9473 8.35349 17.8535C8.44726 17.7597 8.49994 17.6325 8.49994 17.4999C8.49994 17.3673 8.44726 17.2402 8.35349 17.1464C8.25973 17.0526 8.13255 16.9999 7.99994 16.9999C7.86733 16.9999 7.74015 17.0526 7.64639 17.1464C7.55262 17.2402 7.49994 17.3673 7.49994 17.4999C7.49994 17.6325 7.55262 17.7597 7.64639 17.8535C7.74015 17.9473 7.86733 17.9999 7.99994 17.9999ZM7.99994 19.4999C8.53037 19.4999 9.03908 19.2892 9.41415 18.9142C9.78923 18.5391 9.99994 18.0304 9.99994 17.4999C9.99994 16.9695 9.78923 16.4608 9.41415 16.0857C9.03908 15.7107 8.53037 15.4999 7.99994 15.4999C7.46951 15.4999 6.9608 15.7107 6.58573 16.0857C6.21065 16.4608 5.99994 16.9695 5.99994 17.4999C5.99994 18.0304 6.21065 18.5391 6.58573 18.9142C6.9608 19.2892 7.46951 19.4999 7.99994 19.4999ZM0.87594 1.08394C0.986278 0.918455 1.15783 0.803574 1.35287 0.764568C1.5479 0.725561 1.75044 0.765622 1.91594 0.87594L3.08394 1.65444C3.45712 1.90315 3.72058 2.28563 3.81994 2.72294L5.87744 11.7769C5.94024 12.0533 6.09508 12.3001 6.31657 12.4769C6.53806 12.6537 6.81305 12.75 7.09644 12.7499H14.9034C15.1868 12.75 15.4618 12.6537 15.6833 12.4769C15.9048 12.3001 16.0596 12.0533 16.1224 11.7769L17.7134 4.77694C17.755 4.59391 17.7549 4.40387 17.713 4.22091C17.6711 4.03795 17.5885 3.86677 17.4714 3.72009C17.3543 3.5734 17.2057 3.45497 17.0366 3.37358C16.8674 3.29219 16.6821 3.24993 16.4944 3.24994H8.74994C8.55103 3.24994 8.36026 3.17092 8.21961 3.03027C8.07896 2.88962 7.99994 2.69885 7.99994 2.49994C7.99994 2.30103 8.07896 2.11026 8.21961 1.96961C8.36026 1.82896 8.55103 1.74994 8.74994 1.74994H16.4944C18.2594 1.74994 19.5669 3.38844 19.1759 5.10944L17.5849 12.1094C17.4467 12.7172 17.106 13.26 16.6188 13.6489C16.1316 14.0377 15.5268 14.2494 14.9034 14.2494H7.09644C6.47311 14.2494 5.86827 14.0377 5.38106 13.6489C4.89386 13.26 4.55321 12.7172 4.41494 12.1094L2.35694 3.05494C2.34275 2.99254 2.30517 2.93796 2.25194 2.90244L1.08394 2.12394C0.918455 2.0136 0.803574 1.84205 0.764568 1.64701C0.725561 1.45198 0.765622 1.24944 0.87594 1.08394Z" fill="black"/>
    <path fill-rule="evenodd" clip-rule="evenodd" d="M7.99498 8.0304C8.13554 7.88988 8.32613 7.8109 8.52488 7.81081C8.72363 7.81071 8.91429 7.88951 9.05498 8.0299L9.93998 8.9134L12.945 5.9084C13.0142 5.8368 13.097 5.7797 13.1885 5.74044C13.28 5.70117 13.3785 5.68053 13.478 5.67971C13.5776 5.67889 13.6764 5.69792 13.7685 5.73567C13.8607 5.77343 13.9444 5.82916 14.0148 5.89961C14.0852 5.97006 14.1408 6.05382 14.1785 6.14601C14.2161 6.2382 14.2351 6.33697 14.2342 6.43656C14.2333 6.53614 14.2125 6.63454 14.1732 6.72603C14.1338 6.81751 14.0766 6.90024 14.005 6.9694L10.47 10.5044C10.3294 10.6448 10.1387 10.7237 9.93998 10.7237C9.74123 10.7237 9.55061 10.6448 9.40998 10.5044L7.99498 9.0909C7.85438 8.95025 7.77539 8.75952 7.77539 8.56065C7.77539 8.36177 7.85438 8.17104 7.99498 8.0304Z" fill="black"/>
</svg>
