<svg width="36" height="36" viewBox="0 0 36 36" fill="none" xmlns="http://www.w3.org/2000/svg">
    <g clip-path="url(#clip0_24931_4476)">
        <path d="M17.9999 35.723C27.7881 35.723 35.723 27.7881 35.723 17.9999C35.723 8.21175 27.7881 0.276855 17.9999 0.276855C8.21175 0.276855 0.276855 8.21175 0.276855 17.9999C0.276855 27.7881 8.21175 35.723 17.9999 35.723Z" fill="#FF9F0D"/>
        <path d="M16.6705 4.98462H19.329V13.2923H16.6705V4.98462ZM16.6705 22.7077H19.329V31.0154H16.6705V22.7077ZM22.7075 16.6708H31.0151V19.3292H22.7075V16.6708ZM4.98438 16.6708H13.2921V19.3292H4.98438V16.6708ZM20.4339 13.7094L26.3075 7.83582L28.1872 9.71502L22.3137 15.5886L20.4339 13.7094ZM7.84444 26.2495L13.718 20.376L15.5972 22.2558L9.72364 28.1293L7.84444 26.2495ZM20.409 22.3178L22.2882 20.438L28.1617 26.3116L26.2825 28.1913L20.409 22.3178Z" fill="white"/>
    </g>
    <defs>
        <clipPath id="clip0_24931_4476">
            <rect width="36" height="36" fill="white"/>
        </clipPath>
    </defs>
</svg>
