

<svg width="24" height="24" viewBox="0 0 24 24" fill="none" xmlns="http://www.w3.org/2000/svg">
    <g clip-path="url(#clip0_24965_2376)">
        <path d="M17.7757 15.6396L16.3738 17.0641C16.3335 17.1112 16.2814 17.1468 16.2229 17.1674L12.6966 18.3364H14.8664C14.9853 18.3364 15.0995 18.3837 15.1836 18.4678C15.2677 18.552 15.315 18.6661 15.315 18.785C15.315 18.904 15.2677 19.0181 15.1836 19.1023C15.0995 19.1864 14.9853 19.2336 14.8664 19.2336H2.92206C2.80308 19.2336 2.68898 19.1864 2.60485 19.1023C2.52072 19.0181 2.47346 18.904 2.47346 18.785C2.47346 18.6661 2.52072 18.552 2.60485 18.4678C2.68898 18.3837 2.80308 18.3364 2.92206 18.3364H12.2519C12.2138 18.3364 12.1784 18.2951 12.1468 18.2635C12.088 18.2056 12.0466 18.1323 12.0275 18.052C12.0083 17.9717 12.0122 17.8877 12.0386 17.8095L12.3089 16.9907H2.92206C2.80308 16.9907 2.68898 16.9434 2.60485 16.8593C2.52072 16.7751 2.47346 16.661 2.47346 16.5421C2.47346 16.4231 2.52072 16.309 2.60485 16.2248C2.68898 16.1407 2.80308 16.0935 2.92206 16.0935H12.6087L13.2414 14.1926C13.2571 14.1307 13.2883 14.0737 13.3321 14.0272L17.7757 9.56888V4.54206H13.7333C13.4855 4.54206 13.2897 4.3666 13.2897 4.11869V0H0V24H17.7757V15.6396ZM2.92206 13.8505H9.2589C9.37787 13.8505 9.49197 13.8977 9.5761 13.9819C9.66023 14.066 9.70749 14.1801 9.70749 14.2991C9.70749 14.418 9.66023 14.5321 9.5761 14.6163C9.49197 14.7004 9.37787 14.7477 9.2589 14.7477H2.92206C2.80308 14.7477 2.68898 14.7004 2.60485 14.6163C2.52072 14.5321 2.47346 14.418 2.47346 14.2991C2.47346 14.1801 2.52072 14.066 2.60485 13.9819C2.68898 13.8977 2.80308 13.8505 2.92206 13.8505ZM14.8664 21.4766H2.92206C2.80308 21.4766 2.68898 21.4294 2.60485 21.3452C2.52072 21.2611 2.47346 21.147 2.47346 21.028C2.47346 20.9091 2.52072 20.795 2.60485 20.7108C2.68898 20.6267 2.80308 20.5794 2.92206 20.5794H14.8664C14.9854 20.5794 15.0995 20.6267 15.1836 20.7108C15.2678 20.795 15.315 20.9091 15.315 21.028C15.315 21.147 15.2678 21.2611 15.1836 21.3452C15.0995 21.4294 14.9854 21.4766 14.8664 21.4766H14.8664Z" fill="#305CDE"/>
        <path d="M14.1867 0.662201V3.64487H17.1898L14.1867 0.662201ZM13.1743 17.2509L15.2507 16.5568L13.8685 15.1746L13.1743 17.2509ZM16.0802 16.1174L21.7599 10.4251L20.0001 8.6653L14.3079 14.3451L16.0802 16.1174ZM23.7525 8.42788L21.9971 6.67274L20.6351 8.0316L22.3936 9.78988L23.7525 8.42788Z" fill="#305CDE"/>
    </g>
    <defs>
        <clipPath id="clip0_24965_2376">
            <rect width="24" height="24" fill="white"/>
        </clipPath>
    </defs>
</svg>
