
<svg width="24" height="24" viewBox="0 0 24 24" fill="none" xmlns="http://www.w3.org/2000/svg">
    <g clip-path="url(#clip0_24965_2356)">
        <path d="M0.392139 24H17.8151C18.0457 24 18.2087 23.7872 18.2087 23.5565V14.5498L23.7872 8.97083C23.8661 8.89331 23.911 8.78766 23.912 8.67708C23.913 8.5665 23.8701 8.46003 23.7927 8.38106L21.5729 6.15835C21.4926 6.08005 21.3849 6.03619 21.2728 6.03611C21.1606 6.03603 21.0529 6.07974 20.9725 6.15793L18.2087 8.90504V4.66696C18.2109 4.61286 18.2022 4.55887 18.1833 4.50817C18.1643 4.45746 18.1354 4.41104 18.0982 4.37165L13.8807 0.13513C13.8438 0.0945662 13.7992 0.0617327 13.7496 0.0385357C13.6999 0.0153386 13.6461 0.00224001 13.5913 0L0.392139 0C0.161843 0 0 0.212765 0 0.44327V23.5567C0 23.7872 0.161843 24 0.392139 24ZM13.7173 14.9537L15.0033 16.2398L13.0714 16.8856L13.7173 14.9537ZM15.775 15.8309L14.1259 14.1819L19.4224 8.89727L21.0597 10.5346L15.775 15.8309ZM21.2804 7.04348L22.9135 8.67652L21.6491 9.94382L20.0134 8.30765L21.2804 7.04348ZM14.0348 1.4509L16.8076 4.22609H14.0348V1.4509ZM0.834783 0.834783H13.2V4.66696C13.1975 4.71912 13.2059 4.77123 13.2247 4.81997C13.2435 4.8687 13.2722 4.91299 13.309 4.95C13.3458 4.98707 13.3899 5.01608 13.4385 5.03517C13.4871 5.05426 13.5391 5.06301 13.5913 5.06087H17.3739V9.738L13.2285 13.8858C13.1848 13.9286 13.1521 13.9814 13.1336 14.0397L12.545 15.8087H3.53217C3.42147 15.8087 3.31531 15.8527 3.23703 15.9309C3.15876 16.0092 3.11478 16.1154 3.11478 16.2261C3.11478 16.3368 3.15876 16.4429 3.23703 16.5212C3.31531 16.5995 3.42147 16.6435 3.53217 16.6435H12.2662L12.0148 17.4053C11.9902 17.4781 11.9866 17.5563 12.0044 17.631C12.0222 17.7057 12.0607 17.7739 12.1154 17.8278C12.1447 17.8571 12.178 17.8957 12.2132 17.8957H3.53212C3.42142 17.8957 3.31526 17.9396 3.23698 18.0179C3.15871 18.0962 3.11473 18.2023 3.11473 18.313C3.11473 18.4237 3.15871 18.5299 3.23698 18.6082C3.31526 18.6865 3.42142 18.7304 3.53212 18.7304H14.6454C14.8761 18.7304 15.0628 18.5435 15.0628 18.313C15.0628 18.0825 14.8761 17.8957 14.6454 17.8957H12.6267L15.9077 16.8079C15.9654 16.789 16.0175 16.7559 16.0592 16.7118L17.3739 15.3864V23.1652H0.834783V0.834783Z" fill="black"/>
        <path d="M14.6453 19.9825H3.53214C3.42144 19.9825 3.31527 20.0265 3.237 20.1048C3.15872 20.1831 3.11475 20.2892 3.11475 20.3999C3.11475 20.5106 3.15872 20.6168 3.237 20.6951C3.31527 20.7734 3.42144 20.8173 3.53214 20.8173H14.6454C14.8761 20.8173 15.0628 20.6304 15.0628 20.3999C15.0628 20.1694 14.8761 19.9825 14.6454 19.9825H14.6453ZM3.53214 14.5565H9.42795C9.65866 14.5565 9.84534 14.3696 9.84534 14.1391C9.84534 13.9086 9.65866 13.7217 9.42795 13.7217H3.53214C3.42144 13.7217 3.31527 13.7657 3.237 13.8439C3.15872 13.9222 3.11475 14.0284 3.11475 14.1391C3.11475 14.2498 3.15872 14.3559 3.237 14.4342C3.31527 14.5125 3.42144 14.5565 3.53214 14.5565Z" fill="black"/>
    </g>
    <defs>
        <clipPath id="clip0_24965_2356">
            <rect width="24" height="24" fill="white"/>
        </clipPath>
    </defs>
</svg>
