<svg width="44" height="44" viewBox="0 0 44 44" fill="none" xmlns="http://www.w3.org/2000/svg">
    <g clip-path="url(#clip0_24986_1651)">
        <path d="M29.3333 20.5248V35.9675C29.3333 36.594 28.9021 37.1385 28.2923 37.2823L14.9766 40.4236C14.7727 40.4714 14.5605 40.4714 14.3566 40.4236L1.04105 37.2823C0.744801 37.2124 0.480821 37.0446 0.291873 36.806C0.102926 36.5673 8.1256e-05 36.2719 0 35.9675L0 20.5248C0 20.1481 0.156062 19.8017 0.412328 19.5535H28.9195V19.552C29.0505 19.6779 29.1546 19.829 29.2257 19.9962C29.2968 20.1633 29.3334 20.3432 29.3333 20.5248Z" fill="url(#paint0_linear_24986_1651)"/>
        <path d="M14.6667 23.9832V22.5496H16.1784L14.6667 23.9832Z" fill="url(#paint1_linear_24986_1651)"/>
        <path d="M28.9195 19.5535H20.6763V39.0789L28.2922 37.2822C28.5885 37.2123 28.8525 37.0445 29.0414 36.8059C29.2304 36.5673 29.3332 36.2718 29.3333 35.9674V20.5248C29.3334 20.3432 29.2968 20.1633 29.2257 19.9962C29.1546 19.829 29.0504 19.6779 28.9195 19.552V19.5535Z" fill="url(#paint2_linear_24986_1651)"/>
        <path d="M14.6667 19.5535V40.4591C14.5629 40.4591 14.4591 40.4475 14.3567 40.4235L1.04105 37.2823C0.744801 37.2124 0.480821 37.0446 0.291873 36.806C0.102926 36.5673 8.1256e-05 36.2719 0 35.9675L0 20.5248C0 20.1481 0.156062 19.8017 0.412328 19.5535H14.6667Z" fill="url(#paint3_linear_24986_1651)"/>
        <path d="M14.6667 19.5535V40.4591C14.5629 40.4591 14.4591 40.4475 14.3567 40.4235L1.04105 37.2823C0.744801 37.2124 0.480821 37.0446 0.291873 36.806C0.102926 36.5673 8.1256e-05 36.2719 0 35.9675L0 20.5248C0 20.1481 0.156062 19.8017 0.412328 19.5535H14.6667Z" fill="url(#paint4_linear_24986_1651)"/>
        <path d="M14.6667 30.9381V40.4592C14.5629 40.4592 14.4591 40.4475 14.3567 40.4236L1.04105 37.2824C0.744801 37.2125 0.480821 37.0447 0.291873 36.8061C0.102926 36.5674 8.1256e-05 36.272 0 35.9676L0 27.6575L13.1698 30.7639C13.6603 30.8797 14.1627 30.9381 14.6667 30.9381Z" fill="url(#paint5_linear_24986_1651)"/>
        <path d="M14.6667 30.938V40.459C14.7706 40.459 14.8744 40.4474 14.9767 40.4234L28.2924 37.2821C28.5886 37.2123 28.8526 37.0445 29.0416 36.8058C29.2305 36.5672 29.3334 36.2718 29.3334 35.9674V27.6572L16.1637 30.7638C15.6731 30.8795 15.1708 30.938 14.6667 30.938Z" fill="url(#paint6_linear_24986_1651)"/>
        <path d="M28.9195 19.5534L15.4471 22.7317C14.9339 22.8529 14.3995 22.8529 13.8863 22.7317L0.413818 19.5534C0.588092 19.3848 0.80447 19.2662 1.0403 19.21L14.3567 16.0687C14.5605 16.0207 14.7727 16.0207 14.9766 16.0687L19.9488 17.2418V17.8407H22.4889L28.293 19.2099C28.5288 19.2662 28.7452 19.3848 28.9195 19.5534Z" fill="url(#paint7_linear_24986_1651)"/>
        <path d="M19.9488 17.2419V17.8408L6.55113 21.0017L0.413818 19.5534C0.588092 19.3848 0.80447 19.2662 1.0403 19.21L14.3567 16.0687C14.5605 16.0207 14.7727 16.0207 14.9766 16.0687L19.9488 17.2419Z" fill="url(#paint8_linear_24986_1651)"/>
        <path d="M19.9487 17.2412L5.56264 20.6354C5.48269 20.6543 5.41145 20.6996 5.36046 20.764C5.30947 20.8284 5.28172 20.9081 5.28171 20.9902L5.28076 25.5026C5.28076 25.6009 5.34839 25.6863 5.44404 25.7089L7.56103 26.2078C7.59214 26.2152 7.62451 26.2154 7.65571 26.2084C7.68691 26.2015 7.71613 26.1876 7.7412 26.1677C7.76626 26.1479 7.78651 26.1227 7.80043 26.0939C7.81435 26.0651 7.82159 26.0336 7.82159 26.0016V21.5641C7.82158 21.4892 7.84689 21.4164 7.8934 21.3577C7.93992 21.2989 8.00491 21.2576 8.07786 21.2404L22.4888 17.8407L19.9487 17.2412Z" fill="url(#paint9_linear_24986_1651)"/>
        <path d="M12.1258 20.2859L8.07784 21.2405C8.01992 21.2544 7.96677 21.2834 7.92392 21.3248L5.39392 20.728C5.4408 20.6826 5.49895 20.6505 5.56236 20.6351L9.58423 19.6863L12.1258 20.2859Z" fill="url(#paint10_linear_24986_1651)"/>
        <path d="M5.39399 20.728L7.92322 21.3248C7.89105 21.3558 7.86546 21.3931 7.848 21.4342C7.83053 21.4754 7.82154 21.5197 7.82155 21.5644V26.0015C7.82162 26.0335 7.81444 26.0651 7.80053 26.0939C7.78662 26.1227 7.76636 26.148 7.74126 26.1678C7.71617 26.1877 7.6869 26.2016 7.65566 26.2085C7.62442 26.2154 7.59202 26.2151 7.56091 26.2077L5.44401 25.709C5.39754 25.698 5.35613 25.6717 5.32648 25.6343C5.29684 25.5969 5.28068 25.5505 5.28064 25.5028L5.28133 20.9902C5.28132 20.9412 5.2913 20.8926 5.31067 20.8475C5.33004 20.8025 5.35839 20.7618 5.39399 20.728Z" fill="url(#paint11_linear_24986_1651)"/>
        <path d="M5.28098 23.3302L5.28064 25.5028C5.28064 25.6009 5.34819 25.6865 5.44401 25.709L7.56091 26.2077C7.59202 26.2152 7.62443 26.2154 7.65568 26.2086C7.68692 26.2017 7.7162 26.1878 7.7413 26.1679C7.76639 26.1481 7.78666 26.1228 7.80056 26.094C7.81446 26.0651 7.82164 26.0335 7.82155 26.0015V23.3301H5.28098V23.3302Z" fill="url(#paint12_linear_24986_1651)"/>
        <path d="M1.60608 35.3459L7.44296 36.7229C7.48817 36.7335 7.5352 36.7339 7.58054 36.7238C7.62588 36.7137 7.66835 36.6935 7.70477 36.6646C7.74119 36.6358 7.77062 36.5991 7.79085 36.5573C7.81109 36.5155 7.8216 36.4697 7.8216 36.4232V33.2177C7.82161 33.1483 7.79819 33.081 7.75514 33.0266C7.71209 32.9722 7.65193 32.9339 7.58441 32.918L1.74754 31.5412C1.70233 31.5305 1.6553 31.5302 1.60996 31.5403C1.56462 31.5504 1.52215 31.5706 1.48572 31.5994C1.4493 31.6282 1.41987 31.6649 1.39964 31.7068C1.37941 31.7486 1.3689 31.7944 1.3689 31.8409V35.0462C1.36889 35.1156 1.3923 35.1829 1.43536 35.2373C1.47841 35.2917 1.53857 35.33 1.60608 35.3459Z" fill="url(#paint13_linear_24986_1651)"/>
        <path d="M1.3689 32.7495V35.0461C1.36889 35.1155 1.3923 35.1828 1.43536 35.2372C1.47841 35.2916 1.53857 35.3299 1.60608 35.3458L7.44296 36.7227C7.48817 36.7334 7.5352 36.7337 7.58054 36.7236C7.62588 36.7135 7.66835 36.6933 7.70477 36.6645C7.74119 36.6357 7.77062 36.599 7.79085 36.5572C7.81109 36.5154 7.8216 36.4695 7.8216 36.4231V34.2717L1.3689 32.7495Z" fill="url(#paint14_linear_24986_1651)"/>
        <path d="M7.58431 32.9179L4.62024 32.2188V36.057L7.44294 36.7229C7.48815 36.7336 7.53518 36.7339 7.58052 36.7238C7.62586 36.7137 7.66833 36.6935 7.70476 36.6647C7.74118 36.6358 7.77061 36.5992 7.79084 36.5573C7.81107 36.5155 7.82158 36.4697 7.82158 36.4232V33.2176C7.82156 33.1482 7.79812 33.0809 7.75505 33.0265C7.71199 32.9721 7.65183 32.9339 7.58431 32.9179Z" fill="url(#paint15_linear_24986_1651)"/>
        <path d="M16.9847 35.9439V35.9504C16.9847 35.9932 16.9944 36.0353 17.013 36.0738C17.0316 36.1123 17.0587 36.146 17.0922 36.1725C17.1257 36.199 17.1648 36.2176 17.2065 36.2269C17.2482 36.2362 17.2915 36.2359 17.333 36.2261L21.5218 35.2381C21.5839 35.2234 21.6393 35.1882 21.6789 35.1382C21.7185 35.0882 21.7401 35.0262 21.7401 34.9624V34.9559C21.7401 34.9131 21.7304 34.871 21.7118 34.8325C21.6932 34.794 21.6661 34.7603 21.6326 34.7338C21.5991 34.7072 21.5601 34.6886 21.5184 34.6794C21.4766 34.6701 21.4334 34.6704 21.3918 34.6802L17.203 35.6682C17.1409 35.6829 17.0856 35.7181 17.0459 35.7681C17.0063 35.8181 16.9848 35.8801 16.9847 35.9439Z" fill="url(#paint16_linear_24986_1651)"/>
        <path d="M17.333 37.3339L19.421 36.8414C19.4831 36.8268 19.5384 36.7916 19.5781 36.7416C19.6177 36.6915 19.6392 36.6296 19.6393 36.5658V36.5591C19.6393 36.5164 19.6296 36.4742 19.611 36.4358C19.5924 36.3973 19.5653 36.3635 19.5318 36.337C19.4983 36.3105 19.4592 36.2919 19.4175 36.2826C19.3758 36.2734 19.3325 36.2736 19.291 36.2835L17.203 36.776C17.1409 36.7906 17.0856 36.8258 17.0459 36.8758C17.0063 36.9259 16.9848 36.9878 16.9847 37.0516V37.0583C16.9848 37.101 16.9944 37.1432 17.013 37.1816C17.0317 37.2201 17.0587 37.2538 17.0922 37.2803C17.1257 37.3068 17.1648 37.3254 17.2065 37.3347C17.2482 37.344 17.2915 37.3437 17.333 37.3339Z" fill="url(#paint17_linear_24986_1651)"/>
        <path d="M44 23.9831V39.4258C44 40.0523 43.5688 40.5968 42.959 40.7405L29.6433 43.8817C29.4394 43.9296 29.2272 43.9296 29.0233 43.8817L15.7077 40.7404C15.4114 40.6706 15.1474 40.5028 14.9585 40.2641C14.7695 40.0255 14.6667 39.7301 14.6666 39.4257V23.9831C14.6666 23.6063 14.8227 23.26 15.079 23.0117H43.5861V23.0103C43.844 23.2585 44 23.6055 44 23.9831Z" fill="url(#paint18_linear_24986_1651)"/>
        <path d="M43.5862 23.0117H35.343V42.5371L42.959 40.7404C43.2552 40.6706 43.5192 40.5028 43.7082 40.2641C43.8971 40.0255 44 39.7301 44 39.4257V23.9831C44.0001 23.8014 43.9635 23.6216 43.8924 23.4544C43.8213 23.2872 43.7172 23.1362 43.5862 23.0103V23.0117Z" fill="url(#paint19_linear_24986_1651)"/>
        <path d="M29.3333 23.0117V43.9173C29.2295 43.9173 29.1257 43.9057 29.0233 43.8817L15.7077 40.7405C15.4114 40.6706 15.1474 40.5028 14.9585 40.2641C14.7695 40.0255 14.6667 39.7301 14.6666 39.4257V23.9831C14.6666 23.6063 14.8227 23.26 15.079 23.0117H29.3333Z" fill="url(#paint20_linear_24986_1651)"/>
        <path d="M29.3333 23.0117V43.9173C29.2295 43.9173 29.1257 43.9057 29.0233 43.8817L15.7077 40.7405C15.4114 40.6706 15.1474 40.5028 14.9585 40.2641C14.7695 40.0255 14.6667 39.7301 14.6666 39.4257V23.9831C14.6666 23.6063 14.8227 23.26 15.079 23.0117H29.3333Z" fill="url(#paint21_linear_24986_1651)"/>
        <path d="M29.3333 34.3965V43.9175C29.2295 43.9175 29.1257 43.9059 29.0233 43.8819L15.7077 40.7406C15.4114 40.6708 15.1474 40.5029 14.9585 40.2643C14.7695 40.0257 14.6667 39.7303 14.6666 39.4259V31.1157L27.8364 34.2221C28.3269 34.338 28.8293 34.3965 29.3333 34.3965Z" fill="url(#paint22_linear_24986_1651)"/>
        <path d="M29.3333 34.3965V43.9175C29.4371 43.9175 29.5409 43.9059 29.6432 43.8819L42.9589 40.7406C43.2552 40.6708 43.5191 40.5029 43.7081 40.2643C43.897 40.0257 43.9999 39.7303 43.9999 39.4259V31.1157L30.8302 34.2221C30.3396 34.338 29.8373 34.3965 29.3333 34.3965Z" fill="url(#paint23_linear_24986_1651)"/>
        <path d="M43.5862 23.0119L30.1138 26.1902C29.6006 26.3114 29.0662 26.3114 28.553 26.1902L15.0806 23.0119C15.2548 22.8433 15.4712 22.7247 15.7071 22.6684L29.0234 19.5272C29.2273 19.4792 29.4395 19.4792 29.6434 19.5272L34.6155 20.7003V21.2992H37.1557L42.9597 22.6684C43.1956 22.7246 43.4119 22.8433 43.5862 23.0119Z" fill="url(#paint24_linear_24986_1651)"/>
        <path d="M43.5862 23.0119L30.1138 26.1902C29.6006 26.3114 29.0662 26.3114 28.553 26.1902L15.0806 23.0119C15.2548 22.8433 15.4712 22.7247 15.7071 22.6684L29.0234 19.5272C29.2273 19.4792 29.4395 19.4792 29.6434 19.5272L34.6155 20.7003V21.2992H37.1557L42.9597 22.6684C43.1956 22.7246 43.4119 22.8433 43.5862 23.0119Z" fill="url(#paint25_linear_24986_1651)"/>
        <path d="M34.6154 20.7004V21.2993L21.2178 24.4602L15.0804 23.0119C15.2547 22.8433 15.4711 22.7247 15.7069 22.6684L29.0233 19.5272C29.2272 19.4792 29.4394 19.4792 29.6432 19.5272L34.6154 20.7004Z" fill="url(#paint26_linear_24986_1651)"/>
        <path d="M34.6155 20.6997L20.2293 24.0939C20.1493 24.1127 20.0781 24.1581 20.0271 24.2225C19.9761 24.2869 19.9483 24.3666 19.9483 24.4487L19.9474 28.9611C19.9474 29.0594 20.015 29.1448 20.1107 29.1674L22.2277 29.6663C22.2588 29.6737 22.2911 29.6739 22.3223 29.6669C22.3535 29.66 22.3828 29.6461 22.4078 29.6262C22.4329 29.6064 22.4531 29.5812 22.4671 29.5524C22.481 29.5236 22.4882 29.4921 22.4882 29.4601V25.0226C22.4882 24.9477 22.5135 24.8749 22.56 24.8162C22.6065 24.7574 22.6715 24.7161 22.7445 24.6989L37.1554 21.2992L34.6155 20.6997Z" fill="url(#paint27_linear_24986_1651)"/>
        <path d="M34.6157 20.6997L20.2297 24.0934C20.1644 24.1088 20.106 24.1415 20.0604 24.1862L22.5896 24.7835C22.6317 24.7422 22.6841 24.713 22.7443 24.6984L37.1551 21.2987L34.6157 20.6997Z" fill="url(#paint28_linear_24986_1651)"/>
        <path d="M26.7925 23.7444L22.7445 24.699C22.6865 24.7128 22.6334 24.7419 22.5905 24.7833L20.0605 24.1865C20.1074 24.1411 20.1656 24.109 20.229 24.0936L24.2509 23.1448L26.7925 23.7444Z" fill="url(#paint29_linear_24986_1651)"/>
        <path d="M20.0606 24.1865L22.5898 24.7833C22.5577 24.8143 22.5321 24.8516 22.5146 24.8927C22.4972 24.9339 22.4882 24.9781 22.4882 25.0229V29.46C22.4883 29.492 22.4811 29.5236 22.4672 29.5524C22.4533 29.5812 22.433 29.6065 22.4079 29.6264C22.3828 29.6462 22.3535 29.6601 22.3223 29.667C22.2911 29.6739 22.2586 29.6736 22.2275 29.6662L20.1106 29.1675C20.0642 29.1565 20.0228 29.1302 19.9931 29.0928C19.9635 29.0554 19.9473 29.009 19.9473 28.9613L19.948 24.4487C19.948 24.3997 19.9579 24.3511 19.9773 24.306C19.9967 24.261 20.025 24.2203 20.0606 24.1865Z" fill="url(#paint30_linear_24986_1651)"/>
        <path d="M19.9476 26.7884L19.9473 28.9611C19.9473 29.0591 20.0148 29.1447 20.1106 29.1673L22.2275 29.6659C22.2587 29.6734 22.2911 29.6737 22.3223 29.6668C22.3536 29.6599 22.3828 29.646 22.4079 29.6262C22.433 29.6063 22.4533 29.581 22.4672 29.5522C22.4811 29.5234 22.4883 29.4918 22.4882 29.4598V26.7883H19.9476V26.7884Z" fill="url(#paint31_linear_24986_1651)"/>
        <path d="M16.2728 38.8044L22.1097 40.1814C22.1549 40.192 22.2019 40.1923 22.2473 40.1823C22.2926 40.1722 22.3351 40.152 22.3715 40.1231C22.4079 40.0943 22.4374 40.0576 22.4576 40.0158C22.4778 39.974 22.4883 39.9282 22.4883 39.8817V36.6762C22.4884 36.6068 22.4649 36.5395 22.4219 36.4851C22.3788 36.4307 22.3187 36.3924 22.2512 36.3765L16.4143 34.9997C16.3691 34.989 16.322 34.9887 16.2767 34.9988C16.2314 35.0089 16.1889 35.0291 16.1525 35.0579C16.1161 35.0867 16.0866 35.1234 16.0664 35.1652C16.0462 35.2071 16.0356 35.2529 16.0356 35.2994V38.5047C16.0356 38.5741 16.0591 38.6414 16.1021 38.6958C16.1452 38.7502 16.2053 38.7885 16.2728 38.8044Z" fill="url(#paint32_linear_24986_1651)"/>
        <path d="M16.0355 36.208V38.5046C16.0355 38.574 16.0589 38.6413 16.102 38.6957C16.145 38.7501 16.2052 38.7883 16.2727 38.8043L22.1096 40.1812C22.1548 40.1919 22.2018 40.1922 22.2472 40.1821C22.2925 40.172 22.335 40.1518 22.3714 40.123C22.4078 40.0942 22.4372 40.0575 22.4575 40.0157C22.4777 39.9739 22.4882 39.928 22.4882 39.8816V37.7302L16.0355 36.208Z" fill="url(#paint33_linear_24986_1651)"/>
        <path d="M22.2511 36.3762L19.287 35.677V39.5152L22.1097 40.1812C22.1549 40.1918 22.2019 40.1921 22.2473 40.182C22.2926 40.172 22.3351 40.1517 22.3715 40.1229C22.4079 40.0941 22.4374 40.0574 22.4576 40.0156C22.4778 39.9738 22.4883 39.9279 22.4883 39.8815V36.6759C22.4883 36.6065 22.4648 36.5392 22.4218 36.4848C22.3787 36.4304 22.3186 36.3921 22.2511 36.3762Z" fill="url(#paint34_linear_24986_1651)"/>
        <path d="M31.6514 39.4021V39.4087C31.6514 39.4514 31.661 39.4936 31.6796 39.532C31.6982 39.5705 31.7253 39.6043 31.7588 39.6308C31.7923 39.6573 31.8314 39.6759 31.8731 39.6852C31.9148 39.6945 31.9581 39.6942 31.9997 39.6844L36.1884 38.6963C36.2506 38.6817 36.3059 38.6465 36.3455 38.5965C36.3851 38.5464 36.4067 38.4845 36.4067 38.4206V38.4141C36.4067 38.3714 36.3971 38.3292 36.3784 38.2907C36.3598 38.2523 36.3328 38.2185 36.2993 38.192C36.2658 38.1655 36.2267 38.1469 36.185 38.1376C36.1433 38.1283 36.1 38.1286 36.0584 38.1384L31.8696 39.1265C31.8075 39.1411 31.7522 39.1763 31.7125 39.2263C31.6729 39.2764 31.6514 39.3383 31.6514 39.4021Z" fill="url(#paint35_linear_24986_1651)"/>
        <path d="M31.9996 40.7924L34.0875 40.2999C34.1496 40.2853 34.205 40.2501 34.2446 40.2001C34.2842 40.15 34.3058 40.0881 34.3058 40.0243V40.0176C34.3058 39.9749 34.2961 39.9327 34.2775 39.8943C34.2589 39.8558 34.2318 39.822 34.1983 39.7955C34.1648 39.769 34.1257 39.7504 34.084 39.7411C34.0423 39.7319 33.9991 39.7321 33.9575 39.7419L31.8695 40.2345C31.8074 40.2491 31.7521 40.2843 31.7124 40.3343C31.6728 40.3844 31.6513 40.4463 31.6512 40.5101V40.5168C31.6513 40.5595 31.6609 40.6016 31.6795 40.6401C31.6982 40.6786 31.7252 40.7123 31.7587 40.7388C31.7922 40.7653 31.8313 40.7839 31.873 40.7932C31.9147 40.8025 31.958 40.8022 31.9996 40.7924Z" fill="url(#paint36_linear_24986_1651)"/>
        <path d="M36.2367 4.57389V20.0166C36.2367 20.6431 35.8055 21.1876 35.1957 21.3314L21.88 24.4726C21.6761 24.5205 21.4639 24.5205 21.26 24.4726L7.94437 21.3314C7.64811 21.2615 7.38412 21.0937 7.19517 20.855C7.00623 20.6164 6.90339 20.321 6.90332 20.0166V4.57389C6.90332 4.19714 7.05938 3.85081 7.31565 3.60254H35.8228V3.60107C35.9538 3.72698 36.058 3.87806 36.1291 4.04523C36.2002 4.2124 36.2368 4.39222 36.2367 4.57389Z" fill="url(#paint37_linear_24986_1651)"/>
        <path d="M35.8229 3.60262H27.5797V23.128L35.1957 21.3314C35.4919 21.2615 35.7559 21.0937 35.9449 20.855C36.1338 20.6164 36.2366 20.321 36.2367 20.0166V4.57389C36.2368 4.39222 36.2002 4.21241 36.1291 4.04524C36.058 3.87807 35.9539 3.72699 35.8229 3.60107V3.60262Z" fill="url(#paint38_linear_24986_1651)"/>
        <path d="M21.57 3.60262V24.5082C21.4662 24.5082 21.3624 24.4966 21.26 24.4726L7.94437 21.3314C7.64811 21.2615 7.38412 21.0937 7.19517 20.855C7.00623 20.6164 6.90339 20.321 6.90332 20.0166V4.57389C6.90332 4.19714 7.05938 3.85081 7.31565 3.60254L21.57 3.60262Z" fill="url(#paint39_linear_24986_1651)"/>
        <path d="M21.57 14.9873V24.5083C21.4662 24.5083 21.3624 24.4967 21.26 24.4727L7.94437 21.3315C7.64811 21.2616 7.38412 21.0938 7.19517 20.8551C7.00623 20.6165 6.90339 20.3211 6.90332 20.0167V11.7065L20.0731 14.8129C20.5636 14.9288 21.066 14.9873 21.57 14.9873Z" fill="url(#paint40_linear_24986_1651)"/>
        <path d="M21.5701 14.9873V24.5083C21.6739 24.5083 21.7777 24.4967 21.88 24.4727L35.1957 21.3315C35.492 21.2616 35.756 21.0938 35.9449 20.8551C36.1339 20.6165 36.2367 20.3211 36.2368 20.0167V11.7065L23.067 14.813C22.5765 14.9288 22.0741 14.9873 21.5701 14.9873Z" fill="url(#paint41_linear_24986_1651)"/>
        <path d="M35.823 3.60268L22.3506 6.78099C21.8374 6.90225 21.303 6.90225 20.7898 6.78099L7.31726 3.60268C7.49153 3.43412 7.70791 3.31552 7.94374 3.25927L21.2601 0.117997C21.464 0.0700427 21.6762 0.0700427 21.8801 0.117997L26.8522 1.29113V1.89003H29.3924L35.1964 3.25918C35.4323 3.31541 35.6487 3.43405 35.823 3.60268Z" fill="url(#paint42_linear_24986_1651)"/>
        <path d="M26.8522 1.29113V1.89003L13.4546 5.0509L7.31726 3.60268C7.49153 3.43412 7.70791 3.31552 7.94374 3.25927L21.2601 0.117997C21.464 0.0700427 21.6762 0.0700427 21.8801 0.117997L26.8522 1.29113Z" fill="url(#paint43_linear_24986_1651)"/>
        <path d="M26.8522 1.29053L12.466 4.68472C12.386 4.70357 12.3148 4.74887 12.2638 4.81327C12.2128 4.87768 12.185 4.95741 12.185 5.03955L12.1841 9.55187C12.1841 9.65018 12.2517 9.73561 12.3474 9.75821L14.4643 10.2572C14.4955 10.2645 14.5278 10.2647 14.559 10.2578C14.5902 10.2508 14.6195 10.2369 14.6445 10.2171C14.6696 10.1972 14.6898 10.172 14.7038 10.1432C14.7177 10.1144 14.7249 10.0829 14.7249 10.0509V5.61344C14.7249 5.5385 14.7502 5.46575 14.7967 5.407C14.8432 5.34824 14.9082 5.30691 14.9812 5.28972L29.3921 1.89003L26.8522 1.29053Z" fill="url(#paint44_linear_24986_1651)"/>
        <path d="M19.0293 4.33518L14.9813 5.28986C14.9234 5.30367 14.8702 5.33275 14.8274 5.37408L12.2974 4.77733C12.3442 4.73193 12.4024 4.69986 12.4658 4.68443L16.4877 3.7356L19.0293 4.33518Z" fill="url(#paint45_linear_24986_1651)"/>
        <path d="M12.2973 4.77734L14.8265 5.37409C14.7944 5.40515 14.7688 5.44238 14.7513 5.48354C14.7338 5.52471 14.7249 5.56897 14.7249 5.61369V10.0508C14.725 10.0828 14.7178 10.1144 14.7039 10.1432C14.69 10.1721 14.6697 10.1973 14.6446 10.2172C14.6195 10.237 14.5902 10.2509 14.559 10.2578C14.5277 10.2647 14.4953 10.2644 14.4642 10.257L12.3473 9.75828C12.3009 9.74733 12.2595 9.72101 12.2298 9.6836C12.2002 9.64618 12.184 9.59986 12.184 9.55212L12.1846 5.03954C12.1846 4.99048 12.1946 4.94192 12.214 4.89685C12.2334 4.85177 12.2617 4.81111 12.2973 4.77734Z" fill="url(#paint46_linear_24986_1651)"/>
        <path d="M12.1844 7.37939L12.1841 9.55207C12.1841 9.65012 12.2516 9.73571 12.3474 9.75823L14.4643 10.2569C14.4955 10.2644 14.5279 10.2647 14.5591 10.2578C14.5904 10.2509 14.6196 10.237 14.6447 10.2171C14.6698 10.1973 14.6901 10.172 14.704 10.1432C14.7179 10.1144 14.7251 10.0828 14.725 10.0508V7.37939H12.1844Z" fill="url(#paint47_linear_24986_1651)"/>
        <path d="M8.50953 19.395L14.3464 20.772C14.3916 20.7826 14.4386 20.7829 14.484 20.7728C14.5293 20.7628 14.5718 20.7425 14.6082 20.7137C14.6446 20.6849 14.6741 20.6482 14.6943 20.6064C14.7145 20.5646 14.725 20.5187 14.725 20.4723V17.2667C14.7251 17.1974 14.7016 17.13 14.6586 17.0756C14.6155 17.0212 14.5554 16.983 14.4879 16.9671L8.65098 15.5903C8.60577 15.5796 8.55874 15.5793 8.5134 15.5894C8.46806 15.5995 8.42559 15.6197 8.38917 15.6485C8.35274 15.6773 8.32332 15.714 8.30308 15.7558C8.28285 15.7976 8.27234 15.8435 8.27234 15.8899V19.0953C8.2723 19.1647 8.2957 19.232 8.33876 19.2864C8.38182 19.3408 8.44199 19.3791 8.50953 19.395Z" fill="url(#paint48_linear_24986_1651)"/>
        <path d="M8.27222 16.7988V19.0954C8.27221 19.1648 8.29562 19.2321 8.33867 19.2865C8.38173 19.3409 8.44189 19.3792 8.5094 19.3951L14.3463 20.7721C14.3915 20.7827 14.4385 20.783 14.4839 20.7729C14.5292 20.7629 14.5717 20.7427 14.6081 20.7138C14.6445 20.685 14.6739 20.6483 14.6942 20.6065C14.7144 20.5647 14.7249 20.5188 14.7249 20.4724V18.321L8.27222 16.7988Z" fill="url(#paint49_linear_24986_1651)"/>
        <path d="M14.4876 16.967L11.5236 16.2678V20.106L14.3463 20.772C14.3915 20.7826 14.4385 20.783 14.4838 20.7729C14.5292 20.7628 14.5717 20.7426 14.6081 20.7137C14.6445 20.6849 14.6739 20.6482 14.6942 20.6064C14.7144 20.5646 14.7249 20.5188 14.7249 20.4723V17.2667C14.7249 17.1973 14.7015 17.1299 14.6584 17.0756C14.6153 17.0212 14.5552 16.9829 14.4876 16.967Z" fill="url(#paint50_linear_24986_1651)"/>
        <path d="M23.8882 19.993V19.9995C23.8882 20.0422 23.8978 20.0844 23.9165 20.1229C23.9351 20.1613 23.9621 20.1951 23.9956 20.2216C24.0291 20.2481 24.0682 20.2667 24.1099 20.276C24.1516 20.2853 24.1949 20.285 24.2365 20.2752L28.4253 19.2872C28.4874 19.2725 28.5427 19.2373 28.5823 19.1873C28.622 19.1372 28.6435 19.0753 28.6435 19.0115V19.0049C28.6435 18.9622 28.6339 18.92 28.6153 18.8816C28.5967 18.8431 28.5696 18.8094 28.5361 18.7828C28.5026 18.7563 28.4635 18.7377 28.4218 18.7284C28.3801 18.7192 28.3368 18.7194 28.2952 18.7293L24.1065 19.7173C24.0443 19.7319 23.989 19.7671 23.9493 19.8171C23.9097 19.8672 23.8882 19.9291 23.8882 19.993Z" fill="url(#paint51_linear_24986_1651)"/>
        <path d="M24.2364 21.3832L26.3243 20.8908C26.3864 20.8761 26.4418 20.8409 26.4814 20.7909C26.521 20.7408 26.5426 20.6789 26.5426 20.6151V20.6085C26.5426 20.5657 26.5329 20.5235 26.5143 20.4851C26.4957 20.4466 26.4686 20.4129 26.4351 20.3863C26.4016 20.3598 26.3626 20.3412 26.3208 20.332C26.2791 20.3227 26.2359 20.323 26.1943 20.3328L24.1063 20.8253C24.0442 20.8399 23.9889 20.8751 23.9493 20.9252C23.9096 20.9752 23.8881 21.0371 23.8881 21.101V21.1076C23.8881 21.1503 23.8977 21.1925 23.9164 21.2309C23.935 21.2694 23.962 21.3031 23.9956 21.3296C24.0291 21.3561 24.0681 21.3747 24.1098 21.384C24.1515 21.3933 24.1948 21.393 24.2364 21.3832Z" fill="url(#paint52_linear_24986_1651)"/>
    </g>
    <defs>
        <linearGradient id="paint0_linear_24986_1651" x1="1.84327" y1="17.9703" x2="27.4086" y2="38.464" gradientUnits="userSpaceOnUse">
            <stop stop-color="#FEA613"/>
            <stop offset="1" stop-color="#C4573A"/>
        </linearGradient>
        <linearGradient id="paint1_linear_24986_1651" x1="13.0157" y1="23.2664" x2="14.8061" y2="23.2664" gradientUnits="userSpaceOnUse">
            <stop stop-color="#C4573A" stop-opacity="0"/>
            <stop offset="0.235" stop-color="#BE5539" stop-opacity="0.235"/>
            <stop offset="0.539" stop-color="#AE4E35" stop-opacity="0.539"/>
            <stop offset="0.879" stop-color="#934330" stop-opacity="0.879"/>
            <stop offset="1" stop-color="#883F2E"/>
        </linearGradient>
        <linearGradient id="paint2_linear_24986_1651" x1="24.7647" y1="29.3154" x2="29.7373" y2="29.3154" gradientUnits="userSpaceOnUse">
            <stop stop-color="#C4573A" stop-opacity="0"/>
            <stop offset="0.235" stop-color="#BE5539" stop-opacity="0.235"/>
            <stop offset="0.539" stop-color="#AE4E35" stop-opacity="0.539"/>
            <stop offset="0.879" stop-color="#934330" stop-opacity="0.879"/>
            <stop offset="1" stop-color="#883F2E"/>
        </linearGradient>
        <linearGradient id="paint3_linear_24986_1651" x1="6.22772" y1="26.6316" x2="16.7075" y2="39.5955" gradientUnits="userSpaceOnUse">
            <stop stop-color="#C4573A" stop-opacity="0"/>
            <stop offset="0.235" stop-color="#BE5539" stop-opacity="0.235"/>
            <stop offset="0.539" stop-color="#AE4E35" stop-opacity="0.539"/>
            <stop offset="0.879" stop-color="#934330" stop-opacity="0.879"/>
            <stop offset="1" stop-color="#883F2E"/>
        </linearGradient>
        <linearGradient id="paint4_linear_24986_1651" x1="10.0323" y1="26.9417" x2="14.9027" y2="20.9686" gradientUnits="userSpaceOnUse">
            <stop stop-color="#C4573A" stop-opacity="0"/>
            <stop offset="0.235" stop-color="#BE5539" stop-opacity="0.235"/>
            <stop offset="0.539" stop-color="#AE4E35" stop-opacity="0.539"/>
            <stop offset="0.879" stop-color="#934330" stop-opacity="0.879"/>
            <stop offset="1" stop-color="#883F2E"/>
        </linearGradient>
        <linearGradient id="paint5_linear_24986_1651" x1="7.01465" y1="35.7049" x2="6.39366" y2="38.9136" gradientUnits="userSpaceOnUse">
            <stop stop-color="#C4573A" stop-opacity="0"/>
            <stop offset="0.235" stop-color="#BE5539" stop-opacity="0.235"/>
            <stop offset="0.539" stop-color="#AE4E35" stop-opacity="0.539"/>
            <stop offset="0.879" stop-color="#934330" stop-opacity="0.879"/>
            <stop offset="1" stop-color="#883F2E"/>
        </linearGradient>
        <linearGradient id="paint6_linear_24986_1651" x1="22.3187" y1="35.7048" x2="22.9398" y2="38.9134" gradientUnits="userSpaceOnUse">
            <stop stop-color="#C4573A" stop-opacity="0"/>
            <stop offset="0.235" stop-color="#BE5539" stop-opacity="0.235"/>
            <stop offset="0.539" stop-color="#AE4E35" stop-opacity="0.539"/>
            <stop offset="0.879" stop-color="#934330" stop-opacity="0.879"/>
            <stop offset="1" stop-color="#883F2E"/>
        </linearGradient>
        <linearGradient id="paint7_linear_24986_1651" x1="14.5691" y1="18.2519" x2="14.9572" y2="23.4271" gradientUnits="userSpaceOnUse">
            <stop stop-color="#FEA613"/>
            <stop offset="1" stop-color="#C4573A"/>
        </linearGradient>
        <linearGradient id="paint8_linear_24986_1651" x1="10.2104" y1="18.5194" x2="10.4951" y2="19.7097" gradientUnits="userSpaceOnUse">
            <stop stop-color="#C4573A" stop-opacity="0"/>
            <stop offset="0.235" stop-color="#BE5539" stop-opacity="0.235"/>
            <stop offset="0.539" stop-color="#AE4E35" stop-opacity="0.539"/>
            <stop offset="0.879" stop-color="#934330" stop-opacity="0.879"/>
            <stop offset="1" stop-color="#883F2E"/>
        </linearGradient>
        <linearGradient id="paint9_linear_24986_1651" x1="12.0958" y1="17.3349" x2="14.1141" y2="22.2514" gradientUnits="userSpaceOnUse">
            <stop stop-color="#FEF0AE"/>
            <stop offset="1" stop-color="#FAC600"/>
        </linearGradient>
        <linearGradient id="paint10_linear_24986_1651" x1="8.75992" y1="20.3283" x2="8.75992" y2="21.4614" gradientUnits="userSpaceOnUse">
            <stop stop-color="#FE9738" stop-opacity="0"/>
            <stop offset="1" stop-color="#FE9738"/>
        </linearGradient>
        <linearGradient id="paint11_linear_24986_1651" x1="7.19498" y1="23.4708" x2="7.97813" y2="23.4708" gradientUnits="userSpaceOnUse">
            <stop stop-color="#FE9738" stop-opacity="0"/>
            <stop offset="1" stop-color="#FE9738"/>
        </linearGradient>
        <linearGradient id="paint12_linear_24986_1651" x1="6.46769" y1="25.1487" x2="6.31249" y2="26.0284" gradientUnits="userSpaceOnUse">
            <stop stop-color="#FE9738" stop-opacity="0"/>
            <stop offset="1" stop-color="#FE9738"/>
        </linearGradient>
        <linearGradient id="paint13_linear_24986_1651" x1="2.74046" y1="30.9377" x2="6.34201" y2="37.1402" gradientUnits="userSpaceOnUse">
            <stop stop-color="#F5FBFF"/>
            <stop offset="1" stop-color="#DBD5EF"/>
        </linearGradient>
        <linearGradient id="paint14_linear_24986_1651" x1="4.55812" y1="34.766" x2="4.28295" y2="35.9665" gradientUnits="userSpaceOnUse">
            <stop stop-color="#DBD5EF" stop-opacity="0"/>
            <stop offset="0.285" stop-color="#D9D2EE" stop-opacity="0.285"/>
            <stop offset="0.474" stop-color="#D4C9E9" stop-opacity="0.474"/>
            <stop offset="0.635" stop-color="#CBBAE2" stop-opacity="0.635"/>
            <stop offset="0.779" stop-color="#BFA5D7" stop-opacity="0.78"/>
            <stop offset="0.913" stop-color="#AF8ACA" stop-opacity="0.913"/>
            <stop offset="1" stop-color="#A274BF"/>
        </linearGradient>
        <linearGradient id="paint15_linear_24986_1651" x1="6.89612" y1="34.475" x2="7.83361" y2="34.475" gradientUnits="userSpaceOnUse">
            <stop stop-color="#DBD5EF" stop-opacity="0"/>
            <stop offset="0.285" stop-color="#D9D2EE" stop-opacity="0.285"/>
            <stop offset="0.474" stop-color="#D4C9E9" stop-opacity="0.474"/>
            <stop offset="0.635" stop-color="#CBBAE2" stop-opacity="0.635"/>
            <stop offset="0.779" stop-color="#BFA5D7" stop-opacity="0.78"/>
            <stop offset="0.913" stop-color="#AF8ACA" stop-opacity="0.913"/>
            <stop offset="1" stop-color="#A274BF"/>
        </linearGradient>
        <linearGradient id="paint16_linear_24986_1651" x1="18.2386" y1="33.185" x2="20.1361" y2="37.0147" gradientUnits="userSpaceOnUse">
            <stop stop-color="#5A5A5A"/>
            <stop offset="1" stop-color="#444444"/>
        </linearGradient>
        <linearGradient id="paint17_linear_24986_1651" x1="16.8558" y1="33.87" x2="18.7534" y2="37.6996" gradientUnits="userSpaceOnUse">
            <stop stop-color="#5A5A5A"/>
            <stop offset="1" stop-color="#444444"/>
        </linearGradient>
        <linearGradient id="paint18_linear_24986_1651" x1="16.5099" y1="21.4285" x2="42.0754" y2="41.9223" gradientUnits="userSpaceOnUse">
            <stop stop-color="#FEA613"/>
            <stop offset="1" stop-color="#C4573A"/>
        </linearGradient>
        <linearGradient id="paint19_linear_24986_1651" x1="39.4315" y1="32.7737" x2="44.4039" y2="32.7737" gradientUnits="userSpaceOnUse">
            <stop stop-color="#C4573A" stop-opacity="0"/>
            <stop offset="0.235" stop-color="#BE5539" stop-opacity="0.235"/>
            <stop offset="0.539" stop-color="#AE4E35" stop-opacity="0.539"/>
            <stop offset="0.879" stop-color="#934330" stop-opacity="0.879"/>
            <stop offset="1" stop-color="#883F2E"/>
        </linearGradient>
        <linearGradient id="paint20_linear_24986_1651" x1="20.8944" y1="30.0898" x2="31.3742" y2="43.0536" gradientUnits="userSpaceOnUse">
            <stop stop-color="#C4573A" stop-opacity="0"/>
            <stop offset="0.235" stop-color="#BE5539" stop-opacity="0.235"/>
            <stop offset="0.539" stop-color="#AE4E35" stop-opacity="0.539"/>
            <stop offset="0.879" stop-color="#934330" stop-opacity="0.879"/>
            <stop offset="1" stop-color="#883F2E"/>
        </linearGradient>
        <linearGradient id="paint21_linear_24986_1651" x1="22.4923" y1="34.5224" x2="19.9193" y2="17.5221" gradientUnits="userSpaceOnUse">
            <stop stop-color="#C4573A" stop-opacity="0"/>
            <stop offset="0.235" stop-color="#BE5539" stop-opacity="0.235"/>
            <stop offset="0.539" stop-color="#AE4E35" stop-opacity="0.539"/>
            <stop offset="0.879" stop-color="#934330" stop-opacity="0.879"/>
            <stop offset="1" stop-color="#883F2E"/>
        </linearGradient>
        <linearGradient id="paint22_linear_24986_1651" x1="21.6814" y1="39.1632" x2="21.0603" y2="42.3718" gradientUnits="userSpaceOnUse">
            <stop stop-color="#C4573A" stop-opacity="0"/>
            <stop offset="0.235" stop-color="#BE5539" stop-opacity="0.235"/>
            <stop offset="0.539" stop-color="#AE4E35" stop-opacity="0.539"/>
            <stop offset="0.879" stop-color="#934330" stop-opacity="0.879"/>
            <stop offset="1" stop-color="#883F2E"/>
        </linearGradient>
        <linearGradient id="paint23_linear_24986_1651" x1="36.9853" y1="39.1632" x2="37.6064" y2="42.3718" gradientUnits="userSpaceOnUse">
            <stop stop-color="#C4573A" stop-opacity="0"/>
            <stop offset="0.235" stop-color="#BE5539" stop-opacity="0.235"/>
            <stop offset="0.539" stop-color="#AE4E35" stop-opacity="0.539"/>
            <stop offset="0.879" stop-color="#934330" stop-opacity="0.879"/>
            <stop offset="1" stop-color="#883F2E"/>
        </linearGradient>
        <linearGradient id="paint24_linear_24986_1651" x1="29.2358" y1="21.7103" x2="29.6239" y2="26.8855" gradientUnits="userSpaceOnUse">
            <stop stop-color="#FEA613"/>
            <stop offset="1" stop-color="#C4573A"/>
        </linearGradient>
        <linearGradient id="paint25_linear_24986_1651" x1="30.4221" y1="26.3112" x2="29.0744" y2="22.227" gradientUnits="userSpaceOnUse">
            <stop stop-color="#C4573A" stop-opacity="0"/>
            <stop offset="0.235" stop-color="#BE5539" stop-opacity="0.235"/>
            <stop offset="0.539" stop-color="#AE4E35" stop-opacity="0.539"/>
            <stop offset="0.879" stop-color="#934330" stop-opacity="0.879"/>
            <stop offset="1" stop-color="#883F2E"/>
        </linearGradient>
        <linearGradient id="paint26_linear_24986_1651" x1="24.8771" y1="21.9779" x2="25.1617" y2="23.1682" gradientUnits="userSpaceOnUse">
            <stop stop-color="#C4573A" stop-opacity="0"/>
            <stop offset="0.235" stop-color="#BE5539" stop-opacity="0.235"/>
            <stop offset="0.539" stop-color="#AE4E35" stop-opacity="0.539"/>
            <stop offset="0.879" stop-color="#934330" stop-opacity="0.879"/>
            <stop offset="1" stop-color="#883F2E"/>
        </linearGradient>
        <linearGradient id="paint27_linear_24986_1651" x1="26.7624" y1="20.7934" x2="28.7807" y2="25.7098" gradientUnits="userSpaceOnUse">
            <stop stop-color="#FEF0AE"/>
            <stop offset="1" stop-color="#FAC600"/>
        </linearGradient>
        <linearGradient id="paint28_linear_24986_1651" x1="28.9733" y1="24.2958" x2="28.5648" y2="22.56" gradientUnits="userSpaceOnUse">
            <stop stop-color="#FE9738" stop-opacity="0"/>
            <stop offset="1" stop-color="#FE9738"/>
        </linearGradient>
        <linearGradient id="paint29_linear_24986_1651" x1="23.4265" y1="23.7869" x2="23.4265" y2="24.9199" gradientUnits="userSpaceOnUse">
            <stop stop-color="#FE9738" stop-opacity="0"/>
            <stop offset="1" stop-color="#FE9738"/>
        </linearGradient>
        <linearGradient id="paint30_linear_24986_1651" x1="21.8617" y1="26.9293" x2="22.6448" y2="26.9293" gradientUnits="userSpaceOnUse">
            <stop stop-color="#FE9738" stop-opacity="0"/>
            <stop offset="1" stop-color="#FE9738"/>
        </linearGradient>
        <linearGradient id="paint31_linear_24986_1651" x1="21.1344" y1="28.6069" x2="20.9791" y2="29.4867" gradientUnits="userSpaceOnUse">
            <stop stop-color="#FE9738" stop-opacity="0"/>
            <stop offset="1" stop-color="#FE9738"/>
        </linearGradient>
        <linearGradient id="paint32_linear_24986_1651" x1="17.4072" y1="34.3961" x2="21.0087" y2="40.5987" gradientUnits="userSpaceOnUse">
            <stop stop-color="#F5FBFF"/>
            <stop offset="1" stop-color="#DBD5EF"/>
        </linearGradient>
        <linearGradient id="paint33_linear_24986_1651" x1="19.2247" y1="38.2244" x2="18.9497" y2="39.425" gradientUnits="userSpaceOnUse">
            <stop stop-color="#DBD5EF" stop-opacity="0"/>
            <stop offset="0.285" stop-color="#D9D2EE" stop-opacity="0.285"/>
            <stop offset="0.474" stop-color="#D4C9E9" stop-opacity="0.474"/>
            <stop offset="0.635" stop-color="#CBBAE2" stop-opacity="0.635"/>
            <stop offset="0.779" stop-color="#BFA5D7" stop-opacity="0.78"/>
            <stop offset="0.913" stop-color="#AF8ACA" stop-opacity="0.913"/>
            <stop offset="1" stop-color="#A274BF"/>
        </linearGradient>
        <linearGradient id="paint34_linear_24986_1651" x1="21.5629" y1="37.9333" x2="22.5004" y2="37.9333" gradientUnits="userSpaceOnUse">
            <stop stop-color="#DBD5EF" stop-opacity="0"/>
            <stop offset="0.285" stop-color="#D9D2EE" stop-opacity="0.285"/>
            <stop offset="0.474" stop-color="#D4C9E9" stop-opacity="0.474"/>
            <stop offset="0.635" stop-color="#CBBAE2" stop-opacity="0.635"/>
            <stop offset="0.779" stop-color="#BFA5D7" stop-opacity="0.78"/>
            <stop offset="0.913" stop-color="#AF8ACA" stop-opacity="0.913"/>
            <stop offset="1" stop-color="#A274BF"/>
        </linearGradient>
        <linearGradient id="paint35_linear_24986_1651" x1="32.9051" y1="36.6432" x2="34.8027" y2="40.4728" gradientUnits="userSpaceOnUse">
            <stop stop-color="#5A5A5A"/>
            <stop offset="1" stop-color="#444444"/>
        </linearGradient>
        <linearGradient id="paint36_linear_24986_1651" x1="31.5224" y1="37.3284" x2="33.42" y2="41.158" gradientUnits="userSpaceOnUse">
            <stop stop-color="#5A5A5A"/>
            <stop offset="1" stop-color="#444444"/>
        </linearGradient>
        <linearGradient id="paint37_linear_24986_1651" x1="8.74659" y1="2.01939" x2="34.3121" y2="22.5132" gradientUnits="userSpaceOnUse">
            <stop stop-color="#FEA613"/>
            <stop offset="1" stop-color="#C4573A"/>
        </linearGradient>
        <linearGradient id="paint38_linear_24986_1651" x1="31.6681" y1="13.3646" x2="36.6406" y2="13.3646" gradientUnits="userSpaceOnUse">
            <stop stop-color="#C4573A" stop-opacity="0"/>
            <stop offset="0.235" stop-color="#BE5539" stop-opacity="0.235"/>
            <stop offset="0.539" stop-color="#AE4E35" stop-opacity="0.539"/>
            <stop offset="0.879" stop-color="#934330" stop-opacity="0.879"/>
            <stop offset="1" stop-color="#883F2E"/>
        </linearGradient>
        <linearGradient id="paint39_linear_24986_1651" x1="13.1311" y1="10.6807" x2="23.6109" y2="23.6445" gradientUnits="userSpaceOnUse">
            <stop stop-color="#C4573A" stop-opacity="0"/>
            <stop offset="0.235" stop-color="#BE5539" stop-opacity="0.235"/>
            <stop offset="0.539" stop-color="#AE4E35" stop-opacity="0.539"/>
            <stop offset="0.879" stop-color="#934330" stop-opacity="0.879"/>
            <stop offset="1" stop-color="#883F2E"/>
        </linearGradient>
        <linearGradient id="paint40_linear_24986_1651" x1="13.9181" y1="19.754" x2="13.297" y2="22.9626" gradientUnits="userSpaceOnUse">
            <stop stop-color="#C4573A" stop-opacity="0"/>
            <stop offset="0.235" stop-color="#BE5539" stop-opacity="0.235"/>
            <stop offset="0.539" stop-color="#AE4E35" stop-opacity="0.539"/>
            <stop offset="0.879" stop-color="#934330" stop-opacity="0.879"/>
            <stop offset="1" stop-color="#883F2E"/>
        </linearGradient>
        <linearGradient id="paint41_linear_24986_1651" x1="29.2221" y1="19.754" x2="29.8431" y2="22.9626" gradientUnits="userSpaceOnUse">
            <stop stop-color="#C4573A" stop-opacity="0"/>
            <stop offset="0.235" stop-color="#BE5539" stop-opacity="0.235"/>
            <stop offset="0.539" stop-color="#AE4E35" stop-opacity="0.539"/>
            <stop offset="0.879" stop-color="#934330" stop-opacity="0.879"/>
            <stop offset="1" stop-color="#883F2E"/>
        </linearGradient>
        <linearGradient id="paint42_linear_24986_1651" x1="21.4725" y1="2.30115" x2="21.8606" y2="7.47631" gradientUnits="userSpaceOnUse">
            <stop stop-color="#FEA613"/>
            <stop offset="1" stop-color="#C4573A"/>
        </linearGradient>
        <linearGradient id="paint43_linear_24986_1651" x1="17.1139" y1="2.56868" x2="17.3985" y2="3.75891" gradientUnits="userSpaceOnUse">
            <stop stop-color="#C4573A" stop-opacity="0"/>
            <stop offset="0.235" stop-color="#BE5539" stop-opacity="0.235"/>
            <stop offset="0.539" stop-color="#AE4E35" stop-opacity="0.539"/>
            <stop offset="0.879" stop-color="#934330" stop-opacity="0.879"/>
            <stop offset="1" stop-color="#883F2E"/>
        </linearGradient>
        <linearGradient id="paint44_linear_24986_1651" x1="18.9991" y1="1.3842" x2="21.0174" y2="6.3006" gradientUnits="userSpaceOnUse">
            <stop stop-color="#FEF0AE"/>
            <stop offset="1" stop-color="#FAC600"/>
        </linearGradient>
        <linearGradient id="paint45_linear_24986_1651" x1="15.6634" y1="4.37772" x2="15.6634" y2="5.51072" gradientUnits="userSpaceOnUse">
            <stop stop-color="#FE9738" stop-opacity="0"/>
            <stop offset="1" stop-color="#FE9738"/>
        </linearGradient>
        <linearGradient id="paint46_linear_24986_1651" x1="14.0984" y1="7.52004" x2="14.8815" y2="7.52004" gradientUnits="userSpaceOnUse">
            <stop stop-color="#FE9738" stop-opacity="0"/>
            <stop offset="1" stop-color="#FE9738"/>
        </linearGradient>
        <linearGradient id="paint47_linear_24986_1651" x1="13.3712" y1="9.19783" x2="13.2159" y2="10.0776" gradientUnits="userSpaceOnUse">
            <stop stop-color="#FE9738" stop-opacity="0"/>
            <stop offset="1" stop-color="#FE9738"/>
        </linearGradient>
        <linearGradient id="paint48_linear_24986_1651" x1="9.6439" y1="14.9867" x2="13.2454" y2="21.1893" gradientUnits="userSpaceOnUse">
            <stop stop-color="#F5FBFF"/>
            <stop offset="1" stop-color="#DBD5EF"/>
        </linearGradient>
        <linearGradient id="paint49_linear_24986_1651" x1="11.4614" y1="18.8154" x2="11.1864" y2="20.0159" gradientUnits="userSpaceOnUse">
            <stop stop-color="#DBD5EF" stop-opacity="0"/>
            <stop offset="0.285" stop-color="#D9D2EE" stop-opacity="0.285"/>
            <stop offset="0.474" stop-color="#D4C9E9" stop-opacity="0.474"/>
            <stop offset="0.635" stop-color="#CBBAE2" stop-opacity="0.635"/>
            <stop offset="0.779" stop-color="#BFA5D7" stop-opacity="0.78"/>
            <stop offset="0.913" stop-color="#AF8ACA" stop-opacity="0.913"/>
            <stop offset="1" stop-color="#A274BF"/>
        </linearGradient>
        <linearGradient id="paint50_linear_24986_1651" x1="13.7995" y1="18.5241" x2="14.737" y2="18.5241" gradientUnits="userSpaceOnUse">
            <stop stop-color="#DBD5EF" stop-opacity="0"/>
            <stop offset="0.285" stop-color="#D9D2EE" stop-opacity="0.285"/>
            <stop offset="0.474" stop-color="#D4C9E9" stop-opacity="0.474"/>
            <stop offset="0.635" stop-color="#CBBAE2" stop-opacity="0.635"/>
            <stop offset="0.779" stop-color="#BFA5D7" stop-opacity="0.78"/>
            <stop offset="0.913" stop-color="#AF8ACA" stop-opacity="0.913"/>
            <stop offset="1" stop-color="#A274BF"/>
        </linearGradient>
        <linearGradient id="paint51_linear_24986_1651" x1="25.1419" y1="17.2341" x2="27.0395" y2="21.0637" gradientUnits="userSpaceOnUse">
            <stop stop-color="#5A5A5A"/>
            <stop offset="1" stop-color="#444444"/>
        </linearGradient>
        <linearGradient id="paint52_linear_24986_1651" x1="23.7592" y1="17.9192" x2="25.6568" y2="21.7488" gradientUnits="userSpaceOnUse">
            <stop stop-color="#5A5A5A"/>
            <stop offset="1" stop-color="#444444"/>
        </linearGradient>
        <clipPath id="clip0_24986_1651">
            <rect width="44" height="44" fill="white"/>
        </clipPath>
    </defs>
</svg>
