
<svg width="20" height="22" viewBox="0 0 20 22" fill="none" xmlns="http://www.w3.org/2000/svg">
    <path d="M19.0375 4.1377V10.1752C19.0375 15.6502 15.325 20.4502 10 21.8002C4.67502 20.4502 0.962524 15.6502 0.962524 10.1752V4.1377C5.12502 3.6502 7.52502 2.0752 10 0.200195C12.475 2.0752 14.875 3.6502 19.0375 4.1377Z" fill="#305CDE"/>
    <path d="M10 19.4003C5.9875 18.1253 3.25 14.4128 3.25 10.1753V6.08779C6.0625 5.48779 8.125 4.32529 10 3.05029C11.9125 4.36279 13.9375 5.48779 16.75 6.08779V10.1753C16.75 14.4128 14.0125 18.1253 10 19.4003Z" fill="#305CDE"/>
    <path d="M8.5 14.6754L6.25 12.4629L7.4125 11.3379L8.5 12.4254L12.5875 8.33789L13.75 9.46289L8.5 14.6754Z" fill="white"/>
</svg>
