<svg width="44" height="44" viewBox="0 0 44 44" fill="none" xmlns="http://www.w3.org/2000/svg">
    <g clip-path="url(#clip0_24672_3326)">
        <path d="M28.5389 1.56059V42.439C28.5389 42.9233 28.1467 43.3146 27.6633 43.3146H0.875617C0.392219 43.3145 0 42.9233 0 42.439V1.56059C0 1.07633 0.392219 0.685059 0.875617 0.685059H27.6634C28.1467 0.685059 28.5389 1.07633 28.5389 1.56059Z" fill="white"/>
        <path d="M28.5389 17.7407V42.4392C28.5389 42.9234 28.1466 43.3148 27.6632 43.3148H24.7744C20.1868 41.1599 17.0103 36.497 17.0103 31.093C17.0103 24.308 22.0177 18.6924 28.5389 17.7407Z" fill="#D2ECFF"/>
        <path d="M28.5383 1.56035V42.4394C28.5383 42.9228 28.1469 43.315 27.6628 43.315H24.4031C24.8864 43.315 25.2786 42.9228 25.2786 42.4394V1.56035C25.2786 1.07703 24.8864 0.684814 24.4031 0.684814H27.6628C28.1469 0.684729 28.5383 1.07703 28.5383 1.56035Z" fill="#D2ECFF"/>
        <path d="M8.10212 10.074H4.71403C4.19153 10.074 3.76794 9.65037 3.76794 9.12787V5.73979C3.76794 5.21729 4.19153 4.7937 4.71403 4.7937H8.10203C8.62453 4.7937 9.04812 5.21729 9.04812 5.73979V9.12779C9.04812 9.65037 8.62462 10.074 8.10212 10.074Z" fill="#35BCC7"/>
        <path d="M9.04848 5.74003V9.12786C9.04848 9.6501 8.62463 10.0739 8.10239 10.0739H5.66443C6.18667 10.0739 6.61051 9.6501 6.61051 9.12786V5.74003C6.61051 5.21779 6.18667 4.79395 5.66443 4.79395H8.10239C8.62463 4.79395 9.04848 5.21779 9.04848 5.74003Z" fill="#20ABB9"/>
        <path d="M6.3807 8.70865C6.29349 8.70874 6.20711 8.69161 6.12653 8.65824C6.04595 8.62487 5.97275 8.57591 5.91114 8.51417L5.19477 7.7978C5.07124 7.67306 5.00213 7.50447 5.00257 7.32892C5.003 7.15336 5.07293 6.98512 5.19708 6.86099C5.32122 6.73686 5.48947 6.66693 5.66502 6.66652C5.84058 6.6661 6.00916 6.73522 6.13389 6.85876L6.3807 7.10566L9.17977 4.3065C9.30451 4.18296 9.47308 4.11384 9.64864 4.11426C9.8242 4.11468 9.99244 4.1846 10.1166 4.30873C10.2407 4.43286 10.3107 4.6011 10.3111 4.77666C10.3115 4.95221 10.2424 5.1208 10.1189 5.24554L6.85027 8.51417C6.78867 8.57593 6.71548 8.6249 6.63489 8.65827C6.55431 8.69165 6.46792 8.70877 6.3807 8.70865Z" fill="#FDD330"/>
        <path d="M14.9697 8.27102H12.8754C12.6993 8.27102 12.5304 8.20107 12.4059 8.07655C12.2814 7.95204 12.2114 7.78316 12.2114 7.60707C12.2114 7.43098 12.2814 7.2621 12.4059 7.13758C12.5304 7.01307 12.6993 6.94312 12.8754 6.94312H14.9697C15.0569 6.9431 15.1432 6.96027 15.2238 6.99363C15.3043 7.027 15.3775 7.0759 15.4392 7.13756C15.5008 7.19921 15.5497 7.27241 15.5831 7.35297C15.6165 7.43353 15.6336 7.51987 15.6336 7.60707C15.6336 7.69426 15.6165 7.78061 15.5831 7.86117C15.5497 7.94173 15.5008 8.01492 15.4392 8.07658C15.3775 8.13824 15.3043 8.18714 15.2238 8.2205C15.1432 8.25387 15.0569 8.27103 14.9697 8.27102ZM24.7706 10.7379H12.8754C12.7882 10.7379 12.7019 10.7208 12.6213 10.6874C12.5407 10.654 12.4675 10.6051 12.4059 10.5435C12.3442 10.4818 12.2953 10.4086 12.262 10.3281C12.2286 10.2475 12.2114 10.1612 12.2114 10.074C12.2114 9.9868 12.2286 9.90046 12.262 9.81991C12.2953 9.73935 12.3442 9.66616 12.4059 9.6045C12.4675 9.54285 12.5407 9.49394 12.6213 9.46058C12.7019 9.42721 12.7882 9.41004 12.8754 9.41004H24.7706C24.8578 9.41003 24.9441 9.42719 25.0247 9.46055C25.1052 9.49392 25.1784 9.54282 25.2401 9.60448C25.3018 9.66614 25.3507 9.73933 25.384 9.81989C25.4174 9.90045 25.4346 9.9868 25.4345 10.074C25.4346 10.1612 25.4174 10.2475 25.384 10.3281C25.3507 10.4086 25.3018 10.4818 25.2401 10.5435C25.1784 10.6052 25.1052 10.6541 25.0247 10.6874C24.9441 10.7208 24.8578 10.738 24.7706 10.7379Z" fill="#305CDE"/>
        <path d="M8.10212 18.6798H4.71403C4.19153 18.6798 3.76794 18.2562 3.76794 17.7337V14.3457C3.76794 13.8232 4.19153 13.3997 4.71403 13.3997H8.10203C8.62453 13.3997 9.04812 13.8232 9.04812 14.3457V17.7337C9.04812 18.2562 8.62462 18.6798 8.10212 18.6798Z" fill="#35BCC7"/>
        <path d="M9.04848 14.3457V17.7336C9.04848 18.2558 8.62463 18.6797 8.10239 18.6797H5.66443C6.18667 18.6797 6.61051 18.2558 6.61051 17.7336V14.3457C6.61051 13.8235 6.18667 13.3997 5.66443 13.3997H8.10239C8.62463 13.3997 9.04848 13.8235 9.04848 14.3457Z" fill="#20ABB9"/>
        <path d="M6.38071 17.3147C6.2935 17.3148 6.20713 17.2977 6.12656 17.2643C6.04599 17.2309 5.97281 17.182 5.91124 17.1202L5.19486 16.4038C5.1332 16.3422 5.08429 16.269 5.05092 16.1884C5.01755 16.1079 5.00037 16.0215 5.00037 15.9344C5.00036 15.7583 5.0703 15.5894 5.19482 15.4648C5.31933 15.3403 5.48821 15.2704 5.66431 15.2704C5.8404 15.2703 6.00929 15.3403 6.13381 15.4648L6.38071 15.7116L9.17978 12.9125C9.30451 12.7889 9.47309 12.7198 9.64865 12.7202C9.8242 12.7206 9.99245 12.7906 10.1166 12.9147C10.2407 13.0388 10.3107 13.2071 10.3111 13.3826C10.3115 13.5582 10.2424 13.7268 10.1189 13.8515L6.85027 17.1201C6.78869 17.1819 6.7155 17.2309 6.63492 17.2643C6.55433 17.2977 6.46794 17.3148 6.38071 17.3147Z" fill="#FDD330"/>
        <path d="M14.9697 16.8767H12.8754C12.6993 16.8767 12.5304 16.8068 12.4059 16.6823C12.2814 16.5578 12.2114 16.3889 12.2114 16.2128C12.2114 16.0367 12.2814 15.8678 12.4059 15.7433C12.5304 15.6188 12.6993 15.5488 12.8754 15.5488H14.9697C15.3365 15.5488 15.6336 15.8461 15.6336 16.2128C15.6336 16.5795 15.3365 16.8767 14.9697 16.8767ZM24.7706 19.3437H12.8754C12.7882 19.3437 12.7019 19.3266 12.6213 19.2932C12.5407 19.2598 12.4675 19.2109 12.4059 19.1493C12.3442 19.0876 12.2953 19.0144 12.262 18.9339C12.2286 18.8533 12.2114 18.767 12.2114 18.6798C12.2114 18.5926 12.2286 18.5063 12.262 18.4257C12.2953 18.3451 12.3442 18.272 12.4059 18.2103C12.4675 18.1486 12.5407 18.0997 12.6213 18.0664C12.7019 18.033 12.7882 18.0158 12.8754 18.0158H24.7706C25.1374 18.0158 25.4345 18.3131 25.4345 18.6798C25.4345 19.0465 25.1374 19.3437 24.7706 19.3437Z" fill="#305CDE"/>
        <path d="M8.10212 27.2855H4.71403C4.19153 27.2855 3.76794 26.862 3.76794 26.3395V22.9515C3.76794 22.429 4.19153 22.0054 4.71403 22.0054H8.10203C8.62453 22.0054 9.04812 22.429 9.04812 22.9515V26.3395C9.04812 26.862 8.62462 27.2855 8.10212 27.2855Z" fill="#FCA62F"/>
        <path d="M9.04848 22.9517V26.3395C9.04848 26.8618 8.62463 27.2856 8.10239 27.2856H5.66443C6.18667 27.2856 6.61051 26.8618 6.61051 26.3395V22.9517C6.61051 22.4295 6.18667 22.0056 5.66443 22.0056H8.10239C8.62463 22.0056 9.04848 22.4295 9.04848 22.9517Z" fill="#F98824"/>
        <path d="M14.9697 25.4827H12.8754C12.6993 25.4827 12.5304 25.4127 12.4059 25.2882C12.2814 25.1637 12.2114 24.9948 12.2114 24.8187C12.2114 24.6426 12.2814 24.4738 12.4059 24.3493C12.5304 24.2247 12.6993 24.1548 12.8754 24.1548H14.9697C15.0569 24.1548 15.1432 24.1719 15.2238 24.2053C15.3043 24.2387 15.3775 24.2876 15.4392 24.3492C15.5008 24.4109 15.5497 24.4841 15.5831 24.5646C15.6165 24.6452 15.6336 24.7315 15.6336 24.8187C15.6336 24.9059 15.6165 24.9923 15.5831 25.0728C15.5497 25.1534 15.5008 25.2266 15.4392 25.2883C15.3775 25.3499 15.3043 25.3988 15.2238 25.4322C15.1432 25.4655 15.0569 25.4827 14.9697 25.4827ZM24.7706 27.9496H12.8754C12.6993 27.9496 12.5304 27.8797 12.4059 27.7551C12.2814 27.6306 12.2114 27.4618 12.2114 27.2857C12.2114 27.1096 12.2814 26.9407 12.4059 26.8162C12.5304 26.6917 12.6993 26.6217 12.8754 26.6217H24.7706C24.8578 26.6217 24.9441 26.6389 25.0247 26.6722C25.1052 26.7056 25.1784 26.7545 25.2401 26.8161C25.3018 26.8778 25.3507 26.951 25.384 27.0316C25.4174 27.1121 25.4346 27.1985 25.4345 27.2857C25.4346 27.3729 25.4174 27.4592 25.384 27.5398C25.3507 27.6203 25.3018 27.6935 25.2401 27.7552C25.1784 27.8168 25.1052 27.8657 25.0247 27.8991C24.9441 27.9325 24.8578 27.9496 24.7706 27.9496Z" fill="#305CDE"/>
        <path d="M8.10212 35.8915H4.71403C4.19153 35.8915 3.76794 35.4679 3.76794 34.9454V31.5574C3.76794 31.0349 4.19153 30.6113 4.71403 30.6113H8.10203C8.62453 30.6113 9.04812 31.0349 9.04812 31.5574V34.9454C9.04812 35.4679 8.62462 35.8915 8.10212 35.8915Z" fill="#FEE265"/>
        <path d="M9.04848 31.5577V34.9455C9.04848 35.4677 8.62463 35.8916 8.10239 35.8916H5.66443C6.18667 35.8916 6.61051 35.4677 6.61051 34.9455V31.5577C6.61051 31.0354 6.18667 30.6116 5.66443 30.6116H8.10239C8.62463 30.6116 9.04848 31.0354 9.04848 31.5577Z" fill="#FDD330"/>
        <path d="M14.9697 34.0887H12.8754C12.6993 34.0887 12.5304 34.0187 12.4059 33.8942C12.2814 33.7697 12.2114 33.6008 12.2114 33.4247C12.2114 33.2486 12.2814 33.0797 12.4059 32.9552C12.5304 32.8307 12.6993 32.7607 12.8754 32.7607H14.9697C15.0569 32.7607 15.1432 32.7779 15.2238 32.8113C15.3043 32.8446 15.3775 32.8935 15.4392 32.9552C15.5008 33.0168 15.5497 33.09 15.5831 33.1706C15.6165 33.2512 15.6336 33.3375 15.6336 33.4247C15.6336 33.5119 15.6165 33.5982 15.5831 33.6788C15.5497 33.7594 15.5008 33.8326 15.4392 33.8942C15.3775 33.9559 15.3043 34.0048 15.2238 34.0381C15.1432 34.0715 15.0569 34.0887 14.9697 34.0887ZM24.7706 36.5555H12.8754C12.6993 36.5555 12.5304 36.4855 12.4059 36.361C12.2814 36.2365 12.2114 36.0676 12.2114 35.8915C12.2114 35.7154 12.2814 35.5466 12.4059 35.422C12.5304 35.2975 12.6993 35.2276 12.8754 35.2276H24.7706C25.1374 35.2276 25.4345 35.5248 25.4345 35.8915C25.4345 36.2582 25.1374 36.5555 24.7706 36.5555Z" fill="#305CDE"/>
        <path d="M30.505 40.7808C37.9581 40.7808 44.0001 34.7389 44.0001 27.2858C44.0001 19.8327 37.9581 13.7908 30.505 13.7908C23.0519 13.7908 17.01 19.8327 17.01 27.2858C17.01 34.7389 23.0519 40.7808 30.505 40.7808Z" fill="#59B5F7"/>
        <path d="M43.9996 27.2856C44.0003 34.7386 37.9583 40.7806 30.5054 40.7806C30.0068 40.7806 29.5147 40.7532 29.0304 40.7008C35.7894 39.9659 41.0497 34.24 41.0497 27.2856C41.0497 20.3311 35.7886 14.6052 29.0297 13.8703C29.5139 13.8179 30.006 13.7905 30.5046 13.7905C37.9576 13.7905 43.9996 19.8325 43.9996 27.2856Z" fill="#305CDE"/>
        <path d="M30.5049 37.6251C36.2152 37.6251 40.8443 32.996 40.8443 27.2857C40.8443 21.5754 36.2152 16.9463 30.5049 16.9463C24.7946 16.9463 20.1655 21.5754 20.1655 27.2857C20.1655 32.996 24.7946 37.6251 30.5049 37.6251Z" fill="white"/>
        <path d="M40.8445 27.2857C40.8445 32.9957 36.2154 37.6248 30.5047 37.6248C30.0832 37.6248 29.6672 37.5995 29.2588 37.5505C34.3817 36.9353 38.352 32.5743 38.352 27.2857C38.352 21.9971 34.3816 17.636 29.2587 17.0209C29.6671 16.9718 30.0832 16.9465 30.5046 16.9465C36.2153 16.9465 40.8445 21.5756 40.8445 27.2857Z" fill="#D2ECFF"/>
        <path d="M31.8506 31.5602L29.6764 27.9349L31.4766 26.8552L33.6508 30.4805C33.7165 30.5899 33.7359 30.721 33.7049 30.8447C33.674 30.9685 33.5951 31.075 33.4857 31.1406L32.5107 31.7253C32.4565 31.7578 32.3965 31.7793 32.334 31.7886C32.2715 31.7979 32.2078 31.7948 32.1465 31.7795C32.0852 31.7642 32.0275 31.7369 31.9767 31.6993C31.926 31.6617 31.8831 31.6144 31.8506 31.5602Z" fill="#FEE265"/>
        <path d="M30.5271 26.9044C30.4399 26.9044 30.3536 26.8872 30.273 26.8539C30.1925 26.8205 30.1193 26.7716 30.0576 26.7099C29.9959 26.6483 29.947 26.5751 29.9137 26.4945C29.8803 26.414 29.8631 26.3276 29.8632 26.2404V22.1083C29.8632 21.9322 29.9331 21.7633 30.0576 21.6388C30.1821 21.5143 30.351 21.4443 30.5271 21.4443C30.7032 21.4443 30.8721 21.5143 30.9966 21.6388C31.1211 21.7633 31.1911 21.9322 31.1911 22.1083V26.2404C31.1911 26.3276 31.1739 26.414 31.1405 26.4945C31.1072 26.5751 31.0583 26.6483 30.9966 26.7099C30.935 26.7716 30.8618 26.8205 30.7812 26.8539C30.7007 26.8872 30.6143 26.9044 30.5271 26.9044Z" fill="#59B5F7"/>
        <path d="M30.505 28.7737C31.3268 28.7737 31.9929 28.1075 31.9929 27.2858C31.9929 26.464 31.3268 25.7979 30.505 25.7979C29.6833 25.7979 29.0171 26.464 29.0171 27.2858C29.0171 28.1075 29.6833 28.7737 30.505 28.7737Z" fill="#FB9927"/>
        <path d="M38.2382 27.9321H38.2253C38.0505 27.9298 37.8836 27.8586 37.7609 27.734C37.6383 27.6094 37.5697 27.4415 37.5701 27.2667C37.5704 27.0919 37.6397 26.9242 37.7629 26.8002C37.8861 26.6761 38.0533 26.6057 38.2281 26.6041H38.2311L38.241 26.6042C38.4171 26.6046 38.5858 26.6749 38.7101 26.7997C38.8343 26.9244 38.9039 27.0935 38.9035 27.2696C38.9032 27.4456 38.8328 27.6144 38.7081 27.7386C38.5833 27.8629 38.4142 27.9325 38.2382 27.9321ZM22.7819 27.9321H22.772C22.5959 27.9321 22.427 27.8621 22.3025 27.7376C22.178 27.6131 22.108 27.4442 22.108 27.2681C22.108 27.092 22.178 26.9232 22.3025 26.7986C22.427 26.6741 22.5959 26.6042 22.772 26.6042H22.7819C22.9561 26.607 23.1223 26.6782 23.2445 26.8024C23.3667 26.9266 23.4352 27.0939 23.4352 27.2681C23.4352 27.4424 23.3667 27.6097 23.2445 27.7339C23.1223 27.8581 22.9561 27.9293 22.7819 27.9321ZM30.4829 20.2089C30.3957 20.2089 30.3094 20.1917 30.2288 20.1584C30.1482 20.125 30.075 20.0761 30.0134 20.0144C29.9517 19.9528 29.9028 19.8796 29.8695 19.799C29.8361 19.7185 29.8189 19.6321 29.8189 19.5449V19.535C29.8189 19.359 29.8889 19.1901 30.0134 19.0656C30.1379 18.941 30.3068 18.8711 30.4829 18.8711C30.659 18.8711 30.8279 18.941 30.9524 19.0656C31.0769 19.1901 31.1469 19.359 31.1469 19.535V19.5449C31.1469 19.6321 31.1297 19.7185 31.0963 19.799C31.063 19.8796 31.0141 19.9528 30.9524 20.0144C30.8908 20.0761 30.8176 20.125 30.737 20.1584C30.6564 20.1917 30.5701 20.2089 30.4829 20.2089ZM30.5272 35.6651C30.44 35.6651 30.3536 35.6479 30.2731 35.6146C30.1925 35.5812 30.1193 35.5323 30.0576 35.4706C29.996 35.409 29.9471 35.3358 29.9137 35.2552C29.8804 35.1747 29.8632 35.0883 29.8632 35.0011V34.9913C29.8632 34.8152 29.9332 34.6463 30.0577 34.5218C30.1822 34.3972 30.3511 34.3273 30.5272 34.3273C30.7032 34.3273 30.8721 34.3972 30.9966 34.5218C31.1212 34.6463 31.1911 34.8152 31.1911 34.9913V35.0011C31.1911 35.0883 31.174 35.1747 31.1406 35.2552C31.1072 35.3358 31.0583 35.409 30.9967 35.4706C30.935 35.5323 30.8618 35.5812 30.7813 35.6146C30.7007 35.6479 30.6144 35.6651 30.5272 35.6651ZM26.6249 21.2548C26.5081 21.255 26.3933 21.2243 26.2922 21.1658C26.191 21.1074 26.1071 21.0233 26.0489 20.922L26.044 20.9134C25.9587 20.7609 25.9369 20.581 25.9834 20.4126C26.0298 20.2442 26.1408 20.1009 26.2922 20.0137C26.4436 19.9266 26.6232 19.9026 26.7922 19.947C26.9612 19.9913 27.1058 20.1005 27.1948 20.2508L27.1997 20.2594C27.2579 20.3603 27.2884 20.4747 27.2883 20.5912C27.2883 20.7076 27.2576 20.822 27.1993 20.9229C27.1411 21.0237 27.0574 21.1075 26.9566 21.1657C26.8557 21.224 26.7414 21.2547 26.6249 21.2548ZM23.805 24.0898C23.689 24.0898 23.575 24.0593 23.4746 24.0013L23.4659 23.9963C23.3152 23.9076 23.2056 23.7629 23.1609 23.5938C23.1162 23.4247 23.14 23.2448 23.2272 23.0931C23.3143 22.9415 23.4578 22.8304 23.6265 22.7839C23.7951 22.7375 23.9753 22.7594 24.1278 22.845L24.1365 22.85C24.2634 22.9229 24.3627 23.0357 24.4189 23.1709C24.4751 23.306 24.485 23.4559 24.4472 23.5973C24.4094 23.7387 24.3259 23.8637 24.2098 23.9527C24.0936 24.0418 23.9513 24.09 23.805 24.0898ZM37.2125 31.7795C37.0964 31.7795 36.9823 31.7489 36.8818 31.6908L36.8732 31.6859C36.7229 31.5969 36.6137 31.4522 36.5693 31.2833C36.525 31.1143 36.549 30.9347 36.6361 30.7833C36.7233 30.6319 36.8666 30.5209 37.035 30.4744C37.2034 30.428 37.3833 30.4498 37.5358 30.535L37.5444 30.5399C37.6712 30.6129 37.7703 30.7257 37.8264 30.8609C37.8825 30.996 37.8924 31.1459 37.8546 31.2872C37.8167 31.4285 37.7333 31.5534 37.6172 31.6424C37.5011 31.7315 37.3588 31.7796 37.2125 31.7795ZM34.3852 21.2548C34.2688 21.2547 34.1546 21.2241 34.0538 21.1659C33.9531 21.1077 33.8693 21.0241 33.8111 20.9235C33.7528 20.8228 33.722 20.7086 33.7217 20.5922C33.7215 20.4759 33.7518 20.3615 33.8096 20.2606L33.8145 20.252C33.9035 20.102 34.0479 19.993 34.2165 19.9486C34.3851 19.9042 34.5645 19.9278 34.7158 20.0145C34.8671 20.1012 34.9782 20.2439 35.0252 20.4119C35.0722 20.5798 35.0512 20.7595 34.9668 20.9121L34.9619 20.9207C34.9037 21.0223 34.8198 21.1067 34.7185 21.1654C34.6172 21.2241 34.5022 21.2549 34.3852 21.2548ZM26.6187 34.6181C26.5023 34.618 26.3879 34.5873 26.2871 34.529C26.1863 34.4707 26.1025 34.387 26.0443 34.2861C25.9861 34.1853 25.9554 34.0709 25.9553 33.9545C25.9552 33.838 25.9858 33.7236 26.0439 33.6227L26.0488 33.6141C26.1378 33.4638 26.2825 33.3546 26.4514 33.3102C26.6204 33.2659 26.8001 33.2898 26.9514 33.377C27.1028 33.4642 27.2138 33.6075 27.2603 33.7759C27.3067 33.9443 27.2849 34.1242 27.1997 34.2767L27.1948 34.2853C27.1365 34.3865 27.0526 34.4706 26.9515 34.5291C26.8503 34.5875 26.7355 34.6182 26.6187 34.6181ZM37.2051 24.0897C37.0588 24.0899 36.9165 24.0417 36.8004 23.9526C36.6843 23.8635 36.6008 23.7386 36.563 23.5973C36.5252 23.4559 36.5351 23.306 36.5913 23.1709C36.6475 23.0357 36.7467 22.9229 36.8736 22.85L36.8822 22.845C37.0348 22.7594 37.2149 22.7375 37.3836 22.7839C37.5522 22.8304 37.6957 22.9415 37.7829 23.0931C37.8701 23.2448 37.8939 23.4247 37.8492 23.5938C37.8045 23.7629 37.6949 23.9076 37.5441 23.9963L37.5354 24.0013C37.435 24.0592 37.3211 24.0897 37.2051 24.0897ZM23.7977 31.7795C23.6813 31.7796 23.5669 31.7492 23.466 31.6911C23.3651 31.6331 23.2813 31.5495 23.2229 31.4488C23.1791 31.3734 23.1506 31.2901 23.139 31.2037C23.1274 31.1173 23.1329 31.0294 23.1553 30.9452C23.1776 30.8609 23.2163 30.7818 23.2693 30.7125C23.3222 30.6432 23.3882 30.585 23.4636 30.5412L23.4722 30.5363C23.6243 30.4513 23.8037 30.4295 23.9717 30.4755C24.1397 30.5216 24.2829 30.6318 24.3704 30.7824C24.4579 30.9331 24.4826 31.1121 24.4394 31.2808C24.3961 31.4496 24.2883 31.5946 24.1391 31.6845L24.1305 31.6895C24.0295 31.7485 23.9146 31.7795 23.7977 31.7795ZM34.3913 34.6181C34.2744 34.6182 34.1597 34.5875 34.0585 34.5291C33.9574 34.4706 33.8734 34.3865 33.8152 34.2853L33.8103 34.2767C33.725 34.1242 33.7033 33.9443 33.7497 33.7759C33.7962 33.6075 33.9071 33.4642 34.0585 33.377C34.2099 33.2898 34.3896 33.2659 34.5585 33.3102C34.7275 33.3546 34.8722 33.4638 34.9612 33.6141L34.9661 33.6227C35.0242 33.7236 35.0548 33.838 35.0547 33.9545C35.0546 34.0709 35.0239 34.1853 34.9657 34.2861C34.9074 34.387 34.8237 34.4707 34.7229 34.529C34.6221 34.5873 34.5077 34.618 34.3913 34.6181Z" fill="#B9AFB9"/>
    </g>
    <defs>
        <clipPath id="clip0_24672_3326">
            <rect width="44" height="44" fill="white"/>
        </clipPath>
    </defs>
</svg>
