
<svg width="24" height="24" viewBox="0 0 24 24" fill="none" xmlns="http://www.w3.org/2000/svg">
    <path d="M19.3334 4.68208C19.3327 4.04832 19.0806 3.44072 18.6324 2.99264C18.1842 2.54456 17.5765 2.29261 16.9427 2.29208H16.0834V1.33341C16.0834 1.1566 16.0132 0.987034 15.8882 0.86201C15.7631 0.736986 15.5936 0.666748 15.4167 0.666748C15.2399 0.666748 15.0704 0.736986 14.9453 0.86201C14.8203 0.987034 14.7501 1.1566 14.7501 1.33341V2.29208H10.6667V1.33341C10.6667 1.1566 10.5965 0.987034 10.4715 0.86201C10.3465 0.736986 10.1769 0.666748 10.0001 0.666748C9.82327 0.666748 9.6537 0.736986 9.52868 0.86201C9.40365 0.987034 9.33341 1.1566 9.33341 1.33341V2.29208H5.25008V1.33341C5.25008 1.1566 5.17984 0.987034 5.05482 0.86201C4.92979 0.736986 4.76023 0.666748 4.58341 0.666748C4.4066 0.666748 4.23703 0.736986 4.11201 0.86201C3.98699 0.987034 3.91675 1.1566 3.91675 1.33341V2.29208H3.05741C2.42365 2.29261 1.81598 2.54456 1.36778 2.99264C0.919575 3.44072 0.667454 4.04832 0.666748 4.68208V6.00008H19.3334V4.68208ZM18.6667 12.6667C18.8895 12.6674 19.1121 12.6805 19.3334 12.7061V7.33342H0.666748V16.2261C0.66763 16.8731 0.925054 17.4934 1.38258 17.9509C1.8401 18.4084 2.46038 18.6659 3.10741 18.6667H12.6667C12.6687 17.076 13.3015 15.551 14.4262 14.4263C15.551 13.3015 17.076 12.6687 18.6667 12.6667ZM6.66675 14.9587C6.66675 15.0079 6.65706 15.0567 6.63823 15.1021C6.6194 15.1476 6.5918 15.1889 6.55701 15.2237C6.52222 15.2585 6.48092 15.2861 6.43546 15.3049C6.39 15.3237 6.34128 15.3334 6.29208 15.3334H5.04141C4.99221 15.3334 4.94349 15.3237 4.89804 15.3049C4.85258 15.2861 4.81128 15.2585 4.77648 15.2237C4.74169 15.1889 4.7141 15.1476 4.69527 15.1021C4.67644 15.0567 4.66675 15.0079 4.66675 14.9587V13.7081C4.66675 13.6087 4.70622 13.5134 4.77648 13.4432C4.84675 13.3729 4.94205 13.3334 5.04141 13.3334H6.29208C6.34128 13.3334 6.39 13.3431 6.43546 13.3619C6.48092 13.3808 6.52222 13.4084 6.55701 13.4432C6.5918 13.4779 6.6194 13.5192 6.63823 13.5647C6.65706 13.6102 6.66675 13.6589 6.66675 13.7081V14.9587ZM6.66675 10.9587C6.66675 11.0581 6.62727 11.1534 6.55701 11.2237C6.48675 11.2939 6.39145 11.3334 6.29208 11.3334H5.04141C4.94205 11.3334 4.84675 11.2939 4.77648 11.2237C4.70622 11.1534 4.66675 11.0581 4.66675 10.9587V9.70808C4.66675 9.60871 4.70622 9.51342 4.77648 9.44315C4.84675 9.37289 4.94205 9.33342 5.04141 9.33342H6.29208C6.39145 9.33342 6.48675 9.37289 6.55701 9.44315C6.62727 9.51342 6.66675 9.60871 6.66675 9.70808V10.9587ZM10.6667 14.9587C10.6667 15.0079 10.6571 15.0567 10.6382 15.1021C10.6194 15.1476 10.5918 15.1889 10.557 15.2237C10.5222 15.2585 10.4809 15.2861 10.4355 15.3049C10.39 15.3237 10.3413 15.3334 10.2921 15.3334H9.04141C8.99221 15.3334 8.94349 15.3237 8.89804 15.3049C8.85258 15.2861 8.81128 15.2585 8.77648 15.2237C8.74169 15.1889 8.7141 15.1476 8.69527 15.1021C8.67644 15.0567 8.66675 15.0079 8.66675 14.9587V13.7081C8.66675 13.6087 8.70622 13.5134 8.77648 13.4432C8.84675 13.3729 8.94205 13.3334 9.04141 13.3334H10.2921C10.3914 13.3334 10.4867 13.3729 10.557 13.4432C10.6273 13.5134 10.6667 13.6087 10.6667 13.7081V14.9587ZM10.6667 10.9587C10.6667 11.0581 10.6273 11.1534 10.557 11.2237C10.4867 11.2939 10.3914 11.3334 10.2921 11.3334H9.04141C8.94205 11.3334 8.84675 11.2939 8.77648 11.2237C8.70622 11.1534 8.66675 11.0581 8.66675 10.9587V9.70808C8.66675 9.60871 8.70622 9.51342 8.77648 9.44315C8.84675 9.37289 8.94205 9.33342 9.04141 9.33342H10.2921C10.3914 9.33342 10.4867 9.37289 10.557 9.44315C10.6273 9.51342 10.6667 9.60871 10.6667 9.70808V10.9587ZM13.0414 11.3334C12.942 11.3334 12.8467 11.2939 12.7765 11.2237C12.7062 11.1534 12.6667 11.0581 12.6667 10.9587V9.70808C12.6667 9.60871 12.7062 9.51342 12.7765 9.44315C12.8467 9.37289 12.942 9.33342 13.0414 9.33342H14.2921C14.3914 9.33342 14.4867 9.37289 14.557 9.44315C14.6273 9.51342 14.6667 9.60871 14.6667 9.70808V10.9587C14.6667 11.0581 14.6273 11.1534 14.557 11.2237C14.4867 11.2939 14.3914 11.3334 14.2921 11.3334H13.0414Z" fill="#305CDE"/>
    <path d="M18.6667 14C17.7437 14 16.8414 14.2737 16.074 14.7865C15.3066 15.2993 14.7084 16.0281 14.3552 16.8808C14.002 17.7335 13.9096 18.6718 14.0897 19.5771C14.2697 20.4823 14.7142 21.3139 15.3668 21.9665C16.0195 22.6191 16.851 23.0636 17.7562 23.2437C18.6615 23.4237 19.5998 23.3313 20.4525 22.9781C21.3052 22.6249 22.0341 22.0268 22.5469 21.2593C23.0596 20.4919 23.3333 19.5896 23.3333 18.6667C23.3319 17.4294 22.8398 16.2433 21.9649 15.3684C21.0901 14.4935 19.9039 14.0014 18.6667 14ZM20.4713 20.4713C20.3463 20.5963 20.1768 20.6665 20 20.6665C19.8232 20.6665 19.6537 20.5963 19.5287 20.4713L18.1953 19.138C18.0703 19.013 18 18.8435 18 18.6667V16C18 15.8232 18.0702 15.6536 18.1953 15.5286C18.3203 15.4036 18.4899 15.3333 18.6667 15.3333C18.8435 15.3333 19.013 15.4036 19.1381 15.5286C19.2631 15.6536 19.3333 15.8232 19.3333 16V18.3907L20.4713 19.5287C20.5963 19.6537 20.6665 19.8232 20.6665 20C20.6665 20.1768 20.5963 20.3463 20.4713 20.4713Z" fill="#305CDE"/>
</svg>
