<svg width="36" height="36" viewBox="0 0 36 36" fill="none" xmlns="http://www.w3.org/2000/svg">
    <g clip-path="url(#clip0_25147_1759)">
        <path d="M27.0001 31.8V5.4C27.0001 4.08 25.9201 3 24.6001 3H3.0001C1.6801 3 0.600098 4.08 0.600098 5.4V31.8C0.600098 33.12 1.6801 34.2 3.0001 34.2H24.6001C25.2366 34.2 25.8471 33.9471 26.2972 33.4971C26.7472 33.047 27.0001 32.4365 27.0001 31.8Z" fill="#AD6D40"/>
        <path d="M24 5.40015H3.6C3.26863 5.40015 3 5.66878 3 6.00015V31.2001C3 31.5315 3.26863 31.8001 3.6 31.8001H24C24.3314 31.8001 24.6 31.5315 24.6 31.2001V6.00015C24.6 5.66878 24.3314 5.40015 24 5.40015Z" fill="#F8F8FF"/>
        <path d="M18.6 3.0001V4.8001C18.6 5.4601 18.06 6.0001 17.4 6.0001H10.2C9.54 6.0001 9 5.4601 9 4.8001V3.0001C9 2.6701 9.27 2.4001 9.6 2.4001H11.478C11.742 1.3621 12.684 0.600098 13.8 0.600098C14.916 0.600098 15.858 1.3621 16.122 2.4001H18C18.33 2.4001 18.6 2.6701 18.6 3.0001Z" fill="#CBCBF4"/>
        <path d="M35.4 17.9761V34.2001C35.4 34.8601 34.86 35.4001 34.2 35.4001H16.2C15.54 35.4001 15 34.8601 15 34.2001V17.9761H35.4Z" fill="#EA9453"/>
        <path d="M35.2172 17.5422L31.6568 13.9818C31.5994 13.9243 31.5311 13.8785 31.4559 13.8474C31.3808 13.8162 31.3002 13.8001 31.2188 13.8H19.1822C19.1009 13.8 19.0203 13.8161 18.9451 13.8473C18.87 13.8785 18.8017 13.9242 18.7442 13.9818L15.1838 17.5422C14.7932 17.9328 15.0698 18.6 15.6218 18.6H34.7798C35.3318 18.6 35.6078 17.9328 35.2172 17.5422Z" fill="#FCB36B"/>
        <path d="M28.2002 18.6V22.8C28.2002 22.9591 28.137 23.1117 28.0245 23.2243C27.9119 23.3368 27.7593 23.4 27.6002 23.4H22.8002C22.6411 23.4 22.4885 23.3368 22.3759 23.2243C22.2634 23.1117 22.2002 22.9591 22.2002 22.8V18.6L22.8002 18H27.6002L28.2002 18.6Z" fill="#723535"/>
        <path d="M20.9999 30H17.9999C17.6685 30 17.3999 30.2686 17.3999 30.6V32.4C17.3999 32.7314 17.6685 33 17.9999 33H20.9999C21.3313 33 21.5999 32.7314 21.5999 32.4V30.6C21.5999 30.2686 21.3313 30 20.9999 30Z" fill="white"/>
        <path d="M28.2002 18.6L26.4002 13.8H24.0002L22.2002 18.6H28.2002Z" fill="#914747"/>
        <path d="M29.2245 29.5758C29.1689 29.5201 29.1027 29.4758 29.0299 29.4456C28.9572 29.4154 28.8791 29.3999 28.8003 29.3999C28.7215 29.3999 28.6435 29.4154 28.5707 29.4456C28.4979 29.4758 28.4318 29.5201 28.3761 29.5758L27.7761 30.1758C27.692 30.2596 27.6346 30.3665 27.6113 30.483C27.588 30.5995 27.5998 30.7202 27.6452 30.83C27.6907 30.9397 27.7677 31.0335 27.8665 31.0994C27.9654 31.1653 28.0816 31.2003 28.2003 31.2V33C28.2003 33.1592 28.2635 33.3118 28.3761 33.4243C28.4886 33.5368 28.6412 33.6 28.8003 33.6C28.9595 33.6 29.1121 33.5368 29.2246 33.4243C29.3371 33.3118 29.4003 33.1592 29.4003 33V31.2C29.5191 31.2003 29.6353 31.1653 29.7341 31.0994C29.833 31.0335 29.91 30.9397 29.9554 30.83C30.0009 30.7202 30.0127 30.5995 29.9894 30.483C29.9661 30.3665 29.9087 30.2596 29.8245 30.1758L29.2245 29.5758ZM33.4245 30.1758L32.8245 29.5758C32.7689 29.5201 32.7027 29.4758 32.63 29.4456C32.5572 29.4154 32.4791 29.3999 32.4003 29.3999C32.3215 29.3999 32.2435 29.4154 32.1707 29.4456C32.0979 29.4758 32.0318 29.5201 31.9761 29.5758L31.3761 30.1758C31.292 30.2596 31.2346 30.3665 31.2113 30.483C31.188 30.5995 31.1998 30.7202 31.2452 30.83C31.2907 30.9397 31.3677 31.0335 31.4665 31.0994C31.5654 31.1653 31.6816 31.2003 31.8003 31.2V33C31.8003 33.1592 31.8635 33.3118 31.9761 33.4243C32.0886 33.5368 32.2412 33.6 32.4003 33.6C32.5595 33.6 32.7121 33.5368 32.8246 33.4243C32.9371 33.3118 33.0003 33.1592 33.0003 33V31.2C33.1191 31.2003 33.2353 31.1653 33.3341 31.0994C33.433 31.0335 33.51 30.9397 33.5554 30.83C33.6009 30.7202 33.6127 30.5995 33.5894 30.483C33.5661 30.3665 33.5087 30.2596 33.4245 30.1758Z" fill="#20295E"/>
        <path d="M8.40001 13.8002C8.32121 13.8003 8.24316 13.7848 8.17037 13.7546C8.09757 13.7245 8.03145 13.6802 7.97581 13.6244L6.77581 12.4244C6.6633 12.3119 6.6001 12.1593 6.6001 12.0002C6.6001 11.8411 6.6633 11.6885 6.77581 11.576C6.88831 11.4635 7.0409 11.4003 7.20001 11.4003C7.35911 11.4003 7.5117 11.4635 7.62421 11.576L8.30701 12.2588L10.3008 9.26781C10.3445 9.20225 10.4008 9.14595 10.4662 9.10212C10.5317 9.05829 10.6052 9.02779 10.6825 9.01235C10.7598 8.99692 10.8393 8.99686 10.9166 9.01217C10.9939 9.02749 11.0675 9.05788 11.133 9.10161C11.1986 9.14534 11.2549 9.20155 11.2987 9.26704C11.3425 9.33253 11.373 9.40601 11.3885 9.48329C11.4039 9.56056 11.404 9.64012 11.3886 9.71742C11.3733 9.79472 11.3429 9.86825 11.2992 9.93381L8.89921 13.5338C8.8444 13.616 8.77016 13.6833 8.68308 13.7299C8.59599 13.7765 8.49876 13.8002 8.40001 13.8002ZM8.40001 21.0002C8.32121 21.0003 8.24316 20.9848 8.17037 20.9546C8.09757 20.9245 8.03145 20.8802 7.97581 20.8244L6.77581 19.6244C6.7201 19.5687 6.67591 19.5026 6.64576 19.4298C6.61561 19.357 6.6001 19.279 6.6001 19.2002C6.6001 19.1214 6.61561 19.0434 6.64576 18.9706C6.67591 18.8978 6.7201 18.8317 6.77581 18.776C6.83151 18.7203 6.89765 18.6761 6.97043 18.646C7.04322 18.6158 7.12123 18.6003 7.20001 18.6003C7.27879 18.6003 7.3568 18.6158 7.42958 18.646C7.50237 18.6761 7.5685 18.7203 7.62421 18.776L8.30701 19.4588L10.3008 16.4678C10.3891 16.3354 10.5264 16.2435 10.6825 16.2124C10.8386 16.1812 11.0006 16.2133 11.133 16.3016C11.2654 16.3899 11.3573 16.5272 11.3885 16.6833C11.4196 16.8394 11.3875 17.0014 11.2992 17.1338L8.89921 20.7338C8.8444 20.816 8.77016 20.8833 8.68308 20.9299C8.59599 20.9765 8.49876 21.0002 8.40001 21.0002ZM8.40001 28.2002C8.32121 28.2003 8.24316 28.1848 8.17037 28.1546C8.09757 28.1245 8.03145 28.0802 7.97581 28.0244L6.77581 26.8244C6.7201 26.7687 6.67591 26.7026 6.64576 26.6298C6.61561 26.557 6.6001 26.479 6.6001 26.4002C6.6001 26.3214 6.61561 26.2434 6.64576 26.1706C6.67591 26.0978 6.7201 26.0317 6.77581 25.976C6.83151 25.9203 6.89765 25.8761 6.97043 25.846C7.04322 25.8158 7.12123 25.8003 7.20001 25.8003C7.27879 25.8003 7.3568 25.8158 7.42958 25.846C7.50237 25.8761 7.5685 25.9203 7.62421 25.976L8.30701 26.6588L10.3008 23.6678C10.3445 23.6023 10.4008 23.546 10.4662 23.5021C10.5317 23.4583 10.6052 23.4278 10.6825 23.4124C10.7598 23.3969 10.8393 23.3969 10.9166 23.4122C10.9939 23.4275 11.0675 23.4579 11.133 23.5016C11.1986 23.5453 11.2549 23.6016 11.2987 23.667C11.3425 23.7325 11.373 23.806 11.3885 23.8833C11.4039 23.9606 11.404 24.0401 11.3886 24.1174C11.3733 24.1947 11.3429 24.2683 11.2992 24.3338L8.89921 27.9338C8.8444 28.016 8.77016 28.0833 8.68308 28.1299C8.59599 28.1765 8.49876 28.2002 8.40001 28.2002Z" fill="#43A867"/>
    </g>
    <defs>
        <clipPath id="clip0_25147_1759">
            <rect width="36" height="36" fill="white"/>
        </clipPath>
    </defs>
</svg>
